<?xml version="1.0" encoding="UTF-8"?>
<!DOCTYPE svg PUBLIC "-//W3C//DTD SVG 1.0//EN" "http://www.w3.org/TR/2001/REC-SVG-20010904/DTD/svg10.dtd">
<!-- Creator: CorelDRAW 2019 (64 Bit) -->
<svg xmlns="http://www.w3.org/2000/svg" xml:space="preserve" width="20.9044cm" height="18.1032cm" version="1.0" style="shape-rendering:geometricPrecision; text-rendering:geometricPrecision; image-rendering:optimizeQuality; fill-rule:evenodd; clip-rule:evenodd"
viewBox="0 0 20.90436 18.10316"
 xmlns:xlink="http://www.w3.org/1999/xlink">
 <defs>
  <style type="text/css">
   <![CDATA[
    .fil11 {fill:#331A38}
    .fil0 {fill:#3B216D}
    .fil42 {fill:#4D3456}
    .fil39 {fill:#540160}
    .fil37 {fill:#593F60}
    .fil17 {fill:#5D2257}
    .fil6 {fill:#5D2657}
    .fil15 {fill:#622272}
    .fil7 {fill:#622672}
    .fil35 {fill:#6E0180}
    .fil44 {fill:#773189}
    .fil41 {fill:#855970}
    .fil38 {fill:#856E8E}
    .fil22 {fill:#8C01A1}
    .fil23 {fill:#8C01A1}
    .fil36 {fill:#9C01B3}
    .fil21 {fill:#AE00F2}
    .fil2 {fill:#B600A5}
    .fil9 {fill:#B600A5}
    .fil31 {fill:#CC00FF}
    .fil20 {fill:#D100BA}
    .fil16 {fill:#D9BB00}
    .fil19 {fill:#DCC32A}
    .fil5 {fill:#DFC113}
    .fil8 {fill:#F0CF00}
    .fil14 {fill:#F4D82F}
    .fil4 {fill:#F4DBFB}
    .fil18 {fill:#FB9DAF}
    .fil10 {fill:#FBAEAF}
    .fil13 {fill:#FFC34D}
    .fil56 {fill:#FFCDEB}
    .fil40 {fill:#FFD1DF}
    .fil12 {fill:#FFD84D}
    .fil3 {fill:#FFEDFF}
    .fil30 {fill:#FFF2FF}
    .fil33 {fill:white}
    .fil32 {fill:#CC00FF;fill-rule:nonzero}
    .fil27 {fill:#CCB3D1;fill-rule:nonzero}
    .fil29 {fill:#FFE6FF;fill-rule:nonzero}
    .fil24 {fill:#622272;fill-opacity:0.078431}
    .fil59 {fill:#DF82BF;fill-opacity:0.101961}
    .fil60 {fill:#DF82BF;fill-opacity:0.239216}
    .fil34 {fill:white;fill-opacity:0.301961}
    .fil58 {fill:#DF82BF;fill-opacity:0.380392}
    .fil46 {fill:#7B3AC3;fill-opacity:0.400000}
    .fil47 {fill:#E1D4FF;fill-opacity:0.400000}
    .fil51 {fill:#DA82F9;fill-opacity:0.431373}
    .fil57 {fill:#FFCDEB;fill-opacity:0.431373}
    .fil55 {fill:#AC72BC;fill-opacity:0.568627}
    .fil1 {fill:white;fill-rule:nonzero;fill-opacity:0.619608}
    .fil43 {fill:url(#id0)}
    .fil45 {fill:url(#id1)}
    .fil50 {fill:url(#id2)}
    .fil54 {fill:url(#id3)}
    .fil28 {fill:url(#id4);fill-rule:nonzero}
    .fil48 {fill:url(#id5);fill-opacity:0.211765}
    .fil52 {fill:url(#id6);fill-opacity:0.258824}
    .fil49 {fill:url(#id7);fill-opacity:0.490196}
    .fil53 {fill:url(#id8);fill-opacity:0.509804}
    .fil26 {fill:url(#id9)}
    .fil25 {fill:url(#id10)}
   ]]>
  </style>
  <linearGradient id="id0" gradientUnits="userSpaceOnUse" x1="13.67051" y1="4.23715" x2="13.68658" y2="4.09587">
   <stop offset="0" style="stop-opacity:1; stop-color:#543470"/>
   <stop offset="0.501961" style="stop-opacity:1; stop-color:#462869"/>
   <stop offset="1" style="stop-opacity:1; stop-color:#34165E"/>
  </linearGradient>
  <linearGradient id="id1" gradientUnits="userSpaceOnUse" x1="16.20616" y1="5.0759" x2="17.93846" y2="7.68695">
   <stop offset="0" style="stop-opacity:1; stop-color:white"/>
   <stop offset="1" style="stop-opacity:1; stop-color:#49136E"/>
  </linearGradient>
  <linearGradient id="id2" gradientUnits="userSpaceOnUse" x1="10.6292" y1="3.96979" x2="11.60347" y2="5.57626">
   <stop offset="0" style="stop-opacity:1; stop-color:#FF6EB1"/>
   <stop offset="0.54902" style="stop-opacity:1; stop-color:#FD59FF"/>
   <stop offset="1" style="stop-opacity:1; stop-color:#B642F2"/>
  </linearGradient>
  <radialGradient id="id3" gradientUnits="userSpaceOnUse" gradientTransform="matrix(2.85703 2.24021 -2.24058 2.85656 -23 -43)" cx="16.32369" cy="3.28446" r="0.5535" fx="16.32369" fy="3.28446">
   <stop offset="0" style="stop-opacity:1; stop-color:#FF4BFF"/>
   <stop offset="1" style="stop-opacity:1; stop-color:#5B1838"/>
   <stop offset="1" style="stop-opacity:1; stop-color:#5B1838"/>
  </radialGradient>
  <linearGradient id="id4" gradientUnits="userSpaceOnUse" x1="9.48818" y1="6.755" x2="9.0613" y2="6.99835">
   <stop offset="0" style="stop-opacity:1; stop-color:white"/>
   <stop offset="0.701961" style="stop-opacity:1; stop-color:#D8CDDD"/>
   <stop offset="1" style="stop-opacity:1; stop-color:#B19ABA"/>
  </linearGradient>
  <linearGradient id="id5" gradientUnits="userSpaceOnUse" xlink:href="#id1" x1="16.27278" y1="5.0385" x2="17.88952" y2="7.47528">
  </linearGradient>
  <linearGradient id="id6" gradientUnits="userSpaceOnUse" xlink:href="#id2" x1="10.71505" y1="3.70707" x2="11.76941" y2="5.44558">
  </linearGradient>
  <linearGradient id="id7" gradientUnits="userSpaceOnUse" xlink:href="#id1" x1="16.5608" y1="5.40436" x2="17.64174" y2="7.03368">
  </linearGradient>
  <linearGradient id="id8" gradientUnits="userSpaceOnUse" xlink:href="#id2" x1="10.83364" y1="4.44894" x2="11.40986" y2="4.9137">
  </linearGradient>
  <linearGradient id="id9" gradientUnits="userSpaceOnUse" x1="13.55461" y1="7.68342" x2="16.06869" y2="8.08187">
   <stop offset="0" style="stop-opacity:1; stop-color:#FFEB42"/>
   <stop offset="0.231373" style="stop-opacity:1; stop-color:#F28346"/>
   <stop offset="1" style="stop-opacity:1; stop-color:#18001F"/>
  </linearGradient>
  <linearGradient id="id10" gradientUnits="userSpaceOnUse" xlink:href="#id9" x1="8.4759" y1="3.36279" x2="12.39902" y2="3.98456">
  </linearGradient>
 </defs>
 <g id="Camada_x0020_1">
  <metadata id="CorelCorpID_0Corel-Layer"/>
  <path class="fil0" d="M20.66786 18.10984l-20.65386 0c-0.26151,-4.04547 3.21059,-6.59466 5.09698,-7.97966 0.24506,-0.17991 0.46334,-0.3402 0.64322,-0.48154 0.7884,-0.6196 1.37303,-1.97257 1.99481,-3.41153 1.14554,-2.65104 2.54123,-5.98364 5.57645,-6.20142 3.95133,-0.2679 7.31156,1.25012 7.57889,7.56868l0 9.77458c-0.07158,0.24174 -0.15033,0.48541 -0.23649,0.73089z"/>
  <g id="_1966030236768">
   <path class="fil1" d="M18.28045 6.11951c0.00963,0.00496 0.02155,0.00112 0.02655,-0.00862 0.00489,-0.00957 0.00116,-0.02155 -0.00854,-0.02651 -0.00972,-0.00494 -0.02159,-0.00106 -0.02651,0.00861 -0.005,0.00967 -0.0011,0.02152 0.0085,0.02652z"/>
   <path class="fil1" d="M18.58867 9.15452c0.00721,0.00369 0.01616,0.00079 0.01995,-0.00645 0.00366,-0.00724 0.0008,-0.01615 -0.00648,-0.01992 -0.00724,-0.00369 -0.01615,-0.00087 -0.01988,0.00645 -0.00373,0.00731 -0.00084,0.01615 0.00641,0.01992z"/>
   <path class="fil1" d="M17.79396 8.34262c0.00728,0.00384 0.01619,0.00102 0.01995,-0.00623 0.00362,-0.00725 0.00076,-0.01615 -0.00645,-0.01992 -0.00723,-0.00362 -0.01614,-0.0008 -0.01987,0.00645 -0.00367,0.00724 -0.00084,0.01601 0.00637,0.0197z"/>
   <path class="fil1" d="M16.91609 8.58841c0.00725,0.00369 0.01616,0.0008 0.01989,-0.00638 0.00373,-0.00731 0.00083,-0.01623 -0.00641,-0.01992 -0.00724,-0.00369 -0.01611,-0.00087 -0.01984,0.00645 -0.00377,0.00724 -0.00087,0.01608 0.00636,0.01985z"/>
   <path class="fil1" d="M19.0798 10.39517c0.00725,0.00383 0.01611,0.0008 0.01978,-0.00638 0.00373,-0.00731 0.00086,-0.01615 -0.00638,-0.01991 -0.00724,-0.00377 -0.01615,-0.00087 -0.01985,0.00651 -0.00376,0.00718 -0.00079,0.01601 0.00645,0.01978z"/>
   <path class="fil1" d="M17.84397 8.65244c0.00963,0.00492 0.02144,0.00116 0.0264,-0.00848 0.00503,-0.00977 0.00116,-0.02158 -0.00851,-0.02665 -0.00967,-0.005 -0.02151,-0.00095 -0.02647,0.00862 -0.00493,0.0097 -0.0012,0.02151 0.00858,0.02651z"/>
   <path class="fil1" d="M18.33778 10.09303c0.00236,0.00783 -0.00203,0.01616 -0.00989,0.01848 -0.00775,0.00247 -0.01604,-0.00211 -0.01847,-0.00985 -0.00238,-0.00782 0.00207,-0.01609 0.00982,-0.01833 0.00793,-0.00247 0.01611,0.00203 0.01854,0.0097z"/>
   <path class="fil1" d="M18.38011 7.72326c0.00236,0.00776 -0.00202,0.01609 -0.00981,0.01845 -0.00783,0.00242 -0.01612,-0.00207 -0.01839,-0.00986 -0.00244,-0.00782 0.00195,-0.01605 0.00977,-0.01843 0.00775,-0.00239 0.01601,0.00195 0.01843,0.00984z"/>
   <path class="fil1" d="M17.42176 7.51011c0.00235,0.00783 -0.00207,0.01598 -0.00982,0.01852 -0.00778,0.00232 -0.01601,-0.00211 -0.0184,-0.00993 -0.00239,-0.00779 0.00199,-0.01601 0.00982,-0.01836 0.00778,-0.0025 0.01615,0.00199 0.0184,0.00977z"/>
   <path class="fil1" d="M19.65936 7.7998c0.0024,0.00779 -0.00199,0.01604 -0.00984,0.01859 -0.00775,0.00224 -0.01601,-0.00218 -0.01844,-0.01001 -0.00227,-0.00774 0.00199,-0.01586 0.00981,-0.01832 0.00783,-0.00239 0.01609,0.00188 0.01847,0.00974z"/>
   <path class="fil1" d="M18.67269 7.32334c0.00238,0.00789 -0.00203,0.01604 -0.00985,0.01846 -0.00779,0.0024 -0.01609,-0.0021 -0.0184,-0.00985 -0.00239,-0.00775 0.00203,-0.01608 0.00978,-0.0184 0.00781,-0.00238 0.01607,0.00196 0.01847,0.00979z"/>
   <path class="fil1" d="M17.91451 8.4478c0.0024,0.00782 -0.00202,0.01615 -0.00988,0.0184 -0.00772,0.00246 -0.01605,-0.00195 -0.0184,-0.00978 -0.00235,-0.00782 0.00206,-0.01608 0.00989,-0.01847 0.00767,-0.00239 0.016,0.00211 0.01839,0.00985z"/>
   <path class="fil1" d="M17.78513 7.58071c0.00314,0.01032 -0.00265,0.02148 -0.01308,0.02463 -0.0105,0.00319 -0.02151,-0.00265 -0.02462,-0.01312 -0.00316,-0.01046 0.00267,-0.02151 0.01303,-0.02459 0.01042,-0.00307 0.02144,0.00272 0.02467,0.01308z"/>
   <path class="fil1" d="M16.00786 3.74224c0.00724,0.00376 0.01614,0.0008 0.01984,-0.00637 0.0037,-0.00732 0.0008,-0.01624 -0.00637,-0.02 -0.00732,-0.00369 -0.01616,-0.0008 -0.01999,0.00645 -0.00366,0.00725 -0.0008,0.0163 0.00652,0.01992z"/>
   <path class="fil1" d="M16.90733 4.5939c0.00725,0.00377 0.01619,0.0008 0.01992,-0.00645 0.00366,-0.00724 0.0008,-0.01615 -0.00641,-0.01992 -0.00727,-0.00369 -0.01616,-0.00079 -0.01988,0.00652 -0.00372,0.00711 -0.00083,0.01608 0.00637,0.01985z"/>
   <path class="fil1" d="M18.26317 5.77719c0.00725,0.00362 0.01624,0.0008 0.01993,-0.00645 0.00376,-0.00716 0.00087,-0.01608 -0.00645,-0.01978 -0.0072,-0.00383 -0.01611,-0.00094 -0.01977,0.00638 -0.00377,0.00725 -0.00094,0.01616 0.00629,0.01985z"/>
   <path class="fil1" d="M17.98531 4.28393c0.00721,0.0037 0.01615,0.0008 0.01988,-0.00644 0.00376,-0.00725 0.0008,-0.01615 -0.00641,-0.01992 -0.00728,-0.00377 -0.01618,-0.00087 -0.0198,0.00645 -0.00378,0.00717 -0.00088,0.01615 0.00633,0.01991z"/>
   <path class="fil1" d="M16.97832 5.21514c0.00731,0.0037 0.01625,0.00087 0.01991,-0.00645 0.00376,-0.00717 0.00087,-0.01608 -0.00638,-0.01985 -0.00723,-0.00377 -0.01618,-0.00087 -0.01984,0.00638 -0.00376,0.00731 -0.0009,0.01622 0.00631,0.01992z"/>
   <path class="fil1" d="M17.82148 4.06053c0.0072,0.00377 0.01619,0.0008 0.01988,-0.00637 0.00362,-0.00731 0.0008,-0.0163 -0.00634,-0.01999 -0.00735,-0.0037 -0.01618,-0.0008 -0.01995,0.00651 -0.00369,0.0071 -0.0008,0.01609 0.00641,0.01985z"/>
   <path class="fil1" d="M19.1405 5.58689c0.00723,0.00384 0.01611,0.00094 0.01985,-0.00637 0.00372,-0.00724 0.00086,-0.01608 -0.00638,-0.01977 -0.00725,-0.00385 -0.01619,-0.00101 -0.01985,0.0063 -0.00376,0.00717 -0.00094,0.01615 0.00638,0.01984z"/>
   <path class="fil1" d="M16.55823 3.34803c0.00963,0.00492 0.02151,0.00115 0.02651,-0.00863 0.00492,-0.00971 0.00116,-0.02158 -0.00859,-0.0265 -0.00973,-0.00493 -0.02154,-0.0011 -0.02657,0.00854 -0.0049,0.00956 -0.00106,0.02152 0.00865,0.02659z"/>
   <path class="fil1" d="M18.36327 4.03931c0.00312,0.01043 -0.00275,0.0213 -0.0131,0.02441 -0.01051,0.00326 -0.02141,-0.00253 -0.02463,-0.01282 -0.00308,-0.0105 0.00275,-0.02151 0.01311,-0.0247 0.01043,-0.00319 0.02144,0.00261 0.02462,0.01311z"/>
   <path class="fil1" d="M7.89274 9.47481c0.0072,0.00369 0.01615,0.00079 0.01996,-0.00646 0.00365,-0.00724 0.00079,-0.01615 -0.00649,-0.01991 -0.00724,-0.0037 -0.01615,-0.00087 -0.01988,0.00644 -0.00373,0.00732 -0.00083,0.01616 0.00641,0.01993z"/>
   <path class="fil1" d="M9.51667 9.92002c0.00308,0.01043 -0.00271,0.02136 -0.01317,0.02455 -0.0104,0.00319 -0.02137,-0.00276 -0.02453,-0.01311 -0.00322,-0.01043 0.00269,-0.02145 0.01304,-0.02456 0.01043,-0.00325 0.02148,0.00275 0.02466,0.01312z"/>
   <path class="fil1" d="M8.96344 8.12009c0.00239,0.00779 -0.00199,0.01604 -0.00986,0.01858 -0.00774,0.00225 -0.016,-0.00218 -0.01843,-0.01 -0.00228,-0.00775 0.002,-0.01586 0.00982,-0.01832 0.00782,-0.0024 0.01607,0.00188 0.01847,0.00974z"/>
   <path class="fil1" d="M9.28201 10.15015c0.00467,0.015 -0.00395,0.03108 -0.01905,0.03571 -0.01503,0.00464 -0.03107,-0.00398 -0.03571,-0.01905 -0.00464,-0.01514 0.00388,-0.03121 0.01905,-0.0357 0.0151,-0.00464 0.03119,0.00383 0.03571,0.01904z"/>
   <path class="fil1" d="M8.44456 5.90718c0.00725,0.00384 0.01612,0.00094 0.01985,-0.00638 0.00373,-0.00723 0.00086,-0.01607 -0.00637,-0.01977 -0.00725,-0.00384 -0.0162,-0.00101 -0.01985,0.00631 -0.00377,0.00717 -0.00094,0.01615 0.00637,0.01984z"/>
   <path class="fil1" d="M8.48295 4.36735c0.00724,0.00384 0.01612,0.00079 0.01977,-0.00638 0.00373,-0.00731 0.00087,-0.01615 -0.00637,-0.01992 -0.00724,-0.00376 -0.01615,-0.00087 -0.01984,0.00652 -0.00377,0.00717 -0.0008,0.01601 0.00644,0.01978z"/>
   <path class="fil1" d="M9.61575 3.5719c0.00308,0.01043 -0.00271,0.02137 -0.01318,0.02455 -0.01039,0.00319 -0.02136,-0.00275 -0.02451,-0.0131 -0.00323,-0.01044 0.00268,-0.02145 0.01303,-0.02457 0.01043,-0.00326 0.02148,0.00276 0.02466,0.01312z"/>
   <path class="fil1" d="M9.00291 5.13129c0.00308,0.01043 -0.00275,0.02136 -0.01314,0.02456 -0.01048,0.00318 -0.02141,-0.00276 -0.02459,-0.01319 -0.00312,-0.01036 0.00271,-0.02137 0.01314,-0.02448 0.01039,-0.00319 0.02137,0.00267 0.02459,0.01311z"/>
   <path class="fil1" d="M9.38109 3.80203c0.00467,0.015 -0.00395,0.03108 -0.01905,0.03572 -0.01503,0.00463 -0.03108,-0.00398 -0.03571,-0.01906 -0.00463,-0.01514 0.00387,-0.03122 0.01905,-0.0357 0.0151,-0.00464 0.03118,0.00384 0.03571,0.01904z"/>
   <path class="fil1" d="M12.19594 5.95937c0.00963,0.00496 0.02155,0.00112 0.02654,-0.00863 0.00489,-0.00956 0.00116,-0.02154 -0.00855,-0.02651 -0.0097,-0.00493 -0.02158,-0.00105 -0.02651,0.00862 -0.00498,0.00967 -0.00108,0.02151 0.00852,0.02652z"/>
   <path class="fil1" d="M12.50415 8.99437c0.00721,0.0037 0.01615,0.0008 0.01995,-0.00644 0.00367,-0.00725 0.0008,-0.01615 -0.00647,-0.01993 -0.00725,-0.00369 -0.01616,-0.00086 -0.01989,0.00645 -0.00373,0.00732 -0.00083,0.01616 0.00641,0.01992z"/>
   <path class="fil1" d="M11.70944 8.18248c0.00728,0.00383 0.01619,0.00101 0.01996,-0.00623 0.00362,-0.00725 0.00076,-0.01616 -0.00645,-0.01992 -0.00725,-0.00362 -0.01615,-0.0008 -0.01989,0.00645 -0.00365,0.00723 -0.00083,0.01601 0.00638,0.0197z"/>
   <path class="fil1" d="M10.83159 8.42827c0.00724,0.00369 0.01616,0.00079 0.01988,-0.00638 0.00373,-0.00732 0.00084,-0.01623 -0.00641,-0.01993 -0.00723,-0.00369 -0.01612,-0.00086 -0.01985,0.00645 -0.00376,0.00725 -0.00086,0.01609 0.00638,0.01986z"/>
   <path class="fil1" d="M9.82427 9.93022c0.00724,0.00375 0.01615,0.00079 0.01984,-0.00638 0.00369,-0.00732 0.0008,-0.01622 -0.00637,-0.02 -0.00731,-0.00369 -0.01615,-0.0008 -0.01999,0.00645 -0.00366,0.00725 -0.0008,0.0163 0.00652,0.01993z"/>
   <path class="fil1" d="M11.80172 10.4719c0.0072,0.0037 0.01614,0.0008 0.01987,-0.00645 0.00377,-0.00724 0.0008,-0.01615 -0.00641,-0.01991 -0.00727,-0.00378 -0.01619,-0.00087 -0.0198,0.00644 -0.00377,0.00717 -0.00087,0.01616 0.00634,0.01992z"/>
   <path class="fil1" d="M11.63788 10.24851c0.00721,0.00376 0.01619,0.00079 0.01988,-0.00638 0.00362,-0.00731 0.0008,-0.0163 -0.00633,-0.01999 -0.00736,-0.00369 -0.01619,-0.0008 -0.01996,0.00652 -0.00369,0.0071 -0.0008,0.01608 0.00641,0.01985z"/>
   <path class="fil1" d="M10.37465 9.536c0.00963,0.00492 0.0215,0.00116 0.02651,-0.00863 0.00492,-0.0097 0.00115,-0.02158 -0.00859,-0.0265 -0.00974,-0.00493 -0.02155,-0.00109 -0.02658,0.00854 -0.00489,0.00957 -0.00105,0.02152 0.00866,0.02659z"/>
   <path class="fil1" d="M11.75945 8.4923c0.00964,0.00492 0.02144,0.00116 0.0264,-0.00848 0.00504,-0.00977 0.00116,-0.02158 -0.00851,-0.02665 -0.00967,-0.00501 -0.02151,-0.00094 -0.02647,0.00862 -0.00493,0.0097 -0.0012,0.02151 0.00858,0.02651z"/>
   <path class="fil1" d="M12.25326 9.93289c0.00236,0.00782 -0.00202,0.01616 -0.00988,0.01847 -0.00776,0.00247 -0.01605,-0.0021 -0.01847,-0.00985 -0.0024,-0.00782 0.00206,-0.01608 0.00981,-0.01833 0.00794,-0.00246 0.01612,0.00203 0.01854,0.00971z"/>
   <path class="fil1" d="M12.2956 7.56312c0.00235,0.00776 -0.00203,0.01608 -0.00981,0.01844 -0.00783,0.00243 -0.01612,-0.00206 -0.0184,-0.00986 -0.00243,-0.00782 0.00195,-0.01603 0.00977,-0.01842 0.00775,-0.0024 0.01601,0.00195 0.01844,0.00984z"/>
   <path class="fil1" d="M11.33725 7.34997c0.00235,0.00783 -0.00207,0.01598 -0.00982,0.01851 -0.00779,0.00233 -0.01601,-0.0021 -0.01839,-0.00992 -0.00239,-0.00779 0.00199,-0.01601 0.0098,-0.01836 0.00779,-0.00251 0.01616,0.00199 0.01841,0.00977z"/>
   <path class="fil1" d="M13.57485 7.63965c0.00239,0.0078 -0.00199,0.01605 -0.00985,0.01859 -0.00775,0.00225 -0.01601,-0.00218 -0.01843,-0.01 -0.00229,-0.00775 0.00199,-0.01587 0.00981,-0.01833 0.00783,-0.00239 0.01608,0.00189 0.01847,0.00974z"/>
   <path class="fil1" d="M12.58817 7.16319c0.00238,0.00789 -0.00203,0.01605 -0.00986,0.01847 -0.00778,0.00239 -0.01607,-0.0021 -0.01839,-0.00985 -0.00239,-0.00775 0.00203,-0.01608 0.00978,-0.0184 0.00782,-0.00239 0.01608,0.00196 0.01847,0.00978z"/>
   <path class="fil1" d="M11.82999 8.28766c0.0024,0.00782 -0.00202,0.01615 -0.00988,0.0184 -0.00772,0.00246 -0.01604,-0.00196 -0.01839,-0.00978 -0.00236,-0.00783 0.00206,-0.01609 0.00989,-0.01847 0.00767,-0.00239 0.016,0.0021 0.01838,0.00985z"/>
   <path class="fil1" d="M12.17968 10.22728c0.00311,0.01043 -0.00275,0.0213 -0.01311,0.02441 -0.01051,0.00327 -0.0214,-0.00253 -0.02463,-0.01282 -0.00308,-0.0105 0.00276,-0.02151 0.01311,-0.0247 0.01043,-0.00318 0.02144,0.00261 0.02463,0.01311z"/>
   <path class="fil1" d="M11.7006 7.42057c0.00315,0.01032 -0.00264,0.02147 -0.01307,0.02463 -0.0105,0.00318 -0.02151,-0.00265 -0.02463,-0.01312 -0.00314,-0.01046 0.00269,-0.02151 0.01304,-0.0246 0.01043,-0.00307 0.02144,0.00272 0.02466,0.01309z"/>
   <path class="fil1" d="M12.60323 2.64626c0.00721,0.00369 0.01616,0.00079 0.01995,-0.00645 0.00367,-0.00724 0.0008,-0.01615 -0.00647,-0.01992 -0.00725,-0.00369 -0.01616,-0.00087 -0.01989,0.00644 -0.00373,0.00732 -0.00083,0.01616 0.00641,0.01993z"/>
   <path class="fil1" d="M9.92335 3.5821c0.00724,0.00375 0.01615,0.00079 0.01984,-0.00638 0.00369,-0.00732 0.0008,-0.01622 -0.00638,-0.01999 -0.00731,-0.0037 -0.01614,-0.00081 -0.01998,0.00644 -0.00366,0.00725 -0.0008,0.0163 0.00652,0.01993z"/>
   <path class="fil1" d="M10.82283 4.43376c0.00724,0.00377 0.01618,0.0008 0.01992,-0.00645 0.00365,-0.00725 0.00079,-0.01615 -0.00641,-0.01993 -0.00729,-0.00369 -0.01616,-0.00079 -0.01989,0.00653 -0.00373,0.0071 -0.00083,0.01608 0.00638,0.01985z"/>
   <path class="fil1" d="M12.17866 5.61705c0.00725,0.00362 0.01622,0.00079 0.01991,-0.00645 0.00378,-0.00717 0.00088,-0.01608 -0.00644,-0.01978 -0.0072,-0.00384 -0.01612,-0.00094 -0.01977,0.00638 -0.00377,0.00724 -0.00095,0.01615 0.0063,0.01985z"/>
   <path class="fil1" d="M11.90079 4.12379c0.00721,0.0037 0.01615,0.0008 0.01989,-0.00645 0.00376,-0.00724 0.00079,-0.01615 -0.00641,-0.01992 -0.00729,-0.00376 -0.01619,-0.00087 -0.01982,0.00646 -0.00376,0.00717 -0.00087,0.01615 0.00634,0.01991z"/>
   <path class="fil1" d="M10.89381 5.055c0.00731,0.00369 0.01626,0.00087 0.01991,-0.00646 0.00377,-0.00717 0.00087,-0.01608 -0.00637,-0.01984 -0.00724,-0.00376 -0.01619,-0.00088 -0.01984,0.00638 -0.00377,0.00731 -0.00092,0.01622 0.0063,0.01992z"/>
   <path class="fil1" d="M11.73697 3.90039c0.0072,0.00377 0.01618,0.0008 0.01987,-0.00637 0.00362,-0.00731 0.0008,-0.0163 -0.00633,-0.01999 -0.00735,-0.0037 -0.01619,-0.0008 -0.01996,0.00651 -0.0037,0.0071 -0.0008,0.01608 0.00642,0.01985z"/>
   <path class="fil1" d="M13.05598 5.42675c0.00724,0.00384 0.01611,0.00095 0.01984,-0.00638 0.00373,-0.00724 0.00087,-0.01608 -0.00637,-0.01976 -0.00724,-0.00385 -0.01619,-0.00102 -0.01984,0.00629 -0.00377,0.00717 -0.00095,0.01616 0.00637,0.01985z"/>
   <path class="fil1" d="M13.09437 3.88692c0.00724,0.00383 0.01611,0.0008 0.01977,-0.00638 0.00373,-0.00731 0.00086,-0.01615 -0.00637,-0.01991 -0.00725,-0.00377 -0.01616,-0.00087 -0.01985,0.00651 -0.00377,0.00717 -0.0008,0.01601 0.00645,0.01978z"/>
   <path class="fil1" d="M10.47372 3.18788c0.00964,0.00493 0.02151,0.00116 0.02652,-0.00862 0.00492,-0.00971 0.00115,-0.02159 -0.00859,-0.02651 -0.00974,-0.00493 -0.02154,-0.00109 -0.02658,0.00855 -0.00489,0.00956 -0.00105,0.02151 0.00865,0.02658z"/>
   <path class="fil1" d="M11.85853 2.14418c0.00866,0.00442 0.01907,0.00183 0.0247,-0.00574l-0.03153 0c0.00175,0.00233 0.00404,0.00431 0.00683,0.00574z"/>
   <path class="fil1" d="M14.22717 3.09147c0.00307,0.01043 -0.00272,0.02136 -0.01319,0.02455 -0.01039,0.00319 -0.02136,-0.00276 -0.02451,-0.01311 -0.00322,-0.01043 0.00268,-0.02145 0.01304,-0.02456 0.01043,-0.00326 0.02148,0.00275 0.02466,0.01312z"/>
   <path class="fil1" d="M12.35234 3.58477c0.00236,0.00783 -0.00203,0.01616 -0.00988,0.01847 -0.00776,0.00247 -0.01605,-0.0021 -0.01847,-0.00984 -0.00239,-0.00783 0.00206,-0.01609 0.00982,-0.01833 0.00793,-0.00247 0.01611,0.00203 0.01853,0.0097z"/>
   <path class="fil1" d="M13.61432 4.65086c0.00309,0.01043 -0.00275,0.02137 -0.01314,0.02456 -0.01047,0.00318 -0.02141,-0.00276 -0.02459,-0.01319 -0.00312,-0.01036 0.00271,-0.02137 0.01314,-0.02448 0.01039,-0.00319 0.02137,0.00268 0.02459,0.01311z"/>
   <path class="fil1" d="M12.27876 3.87916c0.00311,0.01043 -0.00275,0.0213 -0.01312,0.02442 -0.0105,0.00326 -0.02139,-0.00254 -0.02462,-0.01283 -0.00307,-0.0105 0.00276,-0.02151 0.01311,-0.02469 0.01043,-0.00319 0.02144,0.0026 0.02463,0.0131z"/>
   <path class="fil1" d="M13.99251 3.3216c0.00466,0.015 -0.00395,0.03107 -0.01905,0.03571 -0.01503,0.00464 -0.03108,-0.00398 -0.03571,-0.01905 -0.00464,-0.01514 0.00387,-0.03121 0.01904,-0.0357 0.0151,-0.00464 0.03118,0.00383 0.03572,0.01904z"/>
   <path class="fil1" d="M14.91796 6.05544c0.00963,0.00497 0.02155,0.00113 0.02654,-0.00861 0.00489,-0.00956 0.00116,-0.02156 -0.00854,-0.02652 -0.00971,-0.00492 -0.02159,-0.00104 -0.02651,0.00863 -0.005,0.00967 -0.00109,0.02151 0.00851,0.0265z"/>
   <path class="fil1" d="M15.24769 9.07823c0.00034,-0.00569 -0.00264,-0.01133 -0.00805,-0.01414 -0.00723,-0.0037 -0.01615,-0.00086 -0.01988,0.00645 -0.00136,0.00266 -0.00184,0.00552 -0.00154,0.00828 0.00985,-0.00025 0.01966,-0.00044 0.02947,-0.00059z"/>
   <path class="fil1" d="M14.43146 8.27857c0.00728,0.00383 0.01619,0.00101 0.01995,-0.00623 0.00363,-0.00725 0.00077,-0.01616 -0.00644,-0.01993 -0.00724,-0.00362 -0.01615,-0.00079 -0.01988,0.00645 -0.00366,0.00725 -0.00084,0.016 0.00637,0.01971z"/>
   <path class="fil1" d="M13.5536 8.52435c0.00724,0.00369 0.01615,0.0008 0.01989,-0.00638 0.00373,-0.00732 0.00082,-0.01622 -0.00641,-0.01991 -0.00725,-0.0037 -0.01612,-0.00087 -0.01985,0.00644 -0.00377,0.00725 -0.00087,0.01608 0.00637,0.01985z"/>
   <path class="fil1" d="M12.54629 10.0263c0.00723,0.00377 0.01614,0.0008 0.01984,-0.00637 0.00369,-0.00732 0.00079,-0.01624 -0.00638,-0.02 -0.00731,-0.0037 -0.01615,-0.0008 -0.01999,0.00645 -0.00366,0.00724 -0.00079,0.01629 0.00653,0.01992z"/>
   <path class="fil1" d="M13.09666 9.63208c0.00963,0.00493 0.02151,0.00116 0.0265,-0.00862 0.00493,-0.0097 0.00116,-0.02158 -0.00857,-0.02651 -0.00975,-0.00492 -0.02156,-0.00108 -0.02659,0.00855 -0.00489,0.00956 -0.00105,0.02151 0.00866,0.02658z"/>
   <path class="fil1" d="M14.48147 8.58839c0.00964,0.00492 0.02144,0.00115 0.0264,-0.00848 0.00504,-0.00977 0.00116,-0.02158 -0.00851,-0.02666 -0.00967,-0.00499 -0.02151,-0.00094 -0.02647,0.00862 -0.00492,0.00971 -0.00119,0.02152 0.00858,0.02652z"/>
   <path class="fil1" d="M15.01762 7.65921c0.00235,0.00775 -0.00204,0.01609 -0.00982,0.01844 -0.00782,0.00242 -0.01611,-0.00207 -0.01839,-0.00986 -0.00243,-0.00782 0.00195,-0.01604 0.00978,-0.01843 0.00774,-0.00239 0.01601,0.00196 0.01843,0.00985z"/>
   <path class="fil1" d="M14.05926 7.44606c0.00235,0.00782 -0.00207,0.01597 -0.00982,0.01851 -0.00779,0.00232 -0.016,-0.0021 -0.0184,-0.00992 -0.00239,-0.0078 0.002,-0.01601 0.00982,-0.01837 0.00778,-0.0025 0.01615,0.00199 0.0184,0.00978z"/>
   <path class="fil1" d="M16.29687 7.73574c0.00239,0.00778 -0.00199,0.01605 -0.00984,0.01858 -0.00776,0.00224 -0.01601,-0.00217 -0.01845,-0.00999 -0.00227,-0.00776 0.002,-0.01586 0.00982,-0.01833 0.00783,-0.00239 0.01608,0.00188 0.01847,0.00974z"/>
   <path class="fil1" d="M15.31019 7.25927c0.00239,0.0079 -0.00203,0.01605 -0.00985,0.01848 -0.00779,0.00238 -0.01608,-0.0021 -0.0184,-0.00986 -0.00239,-0.00775 0.00203,-0.01608 0.00978,-0.01839 0.00782,-0.0024 0.01608,0.00195 0.01847,0.00977z"/>
   <path class="fil1" d="M14.55202 8.38375c0.00238,0.00782 -0.00203,0.01615 -0.00989,0.0184 -0.00771,0.00246 -0.01604,-0.00196 -0.01839,-0.00978 -0.00236,-0.00782 0.00205,-0.01609 0.00988,-0.01848 0.00768,-0.00239 0.01601,0.0021 0.0184,0.00986z"/>
   <path class="fil1" d="M14.42262 7.51666c0.00315,0.01031 -0.00264,0.02148 -0.01307,0.02462 -0.0105,0.00319 -0.02151,-0.00264 -0.02462,-0.01311 -0.00315,-0.01047 0.00268,-0.02152 0.01303,-0.02459 0.01043,-0.00308 0.02144,0.00272 0.02466,0.01308z"/>
   <path class="fil1" d="M15.32526 2.74234c0.0072,0.00369 0.01614,0.0008 0.01995,-0.00645 0.00366,-0.00724 0.00079,-0.01615 -0.00649,-0.01992 -0.00724,-0.00369 -0.01615,-0.00087 -0.01988,0.00645 -0.00373,0.00732 -0.00083,0.01615 0.00642,0.01992z"/>
   <path class="fil1" d="M13.65268 2.17623c0.00725,0.00369 0.01616,0.0008 0.01989,-0.00638 0.00373,-0.00731 0.00082,-0.01622 -0.00642,-0.01991 -0.00724,-0.0037 -0.01612,-0.00087 -0.01985,0.00644 -0.00376,0.00725 -0.00086,0.01608 0.00638,0.01985z"/>
   <path class="fil1" d="M12.64536 3.67818c0.00724,0.00377 0.01615,0.0008 0.01984,-0.00638 0.0037,-0.00732 0.0008,-0.01622 -0.00637,-0.01999 -0.00731,-0.00369 -0.01615,-0.00079 -0.01999,0.00645 -0.00366,0.00724 -0.0008,0.01629 0.00652,0.01992z"/>
   <path class="fil1" d="M13.54484 4.52985c0.00724,0.00375 0.01618,0.00078 0.01991,-0.00645 0.00366,-0.00725 0.0008,-0.01615 -0.00641,-0.01992 -0.00727,-0.0037 -0.01615,-0.00081 -0.01988,0.00652 -0.00373,0.00709 -0.00083,0.01608 0.00638,0.01985z"/>
   <path class="fil1" d="M14.90068 5.71314c0.00724,0.00362 0.01622,0.00079 0.01992,-0.00645 0.00376,-0.00717 0.00087,-0.01609 -0.00644,-0.01978 -0.00721,-0.00384 -0.01612,-0.00094 -0.01978,0.00638 -0.00376,0.00724 -0.00094,0.01615 0.0063,0.01985z"/>
   <path class="fil1" d="M14.62282 4.21988c0.0072,0.00369 0.01614,0.00079 0.01987,-0.00645 0.00377,-0.00724 0.0008,-0.01615 -0.00641,-0.01992 -0.00727,-0.00377 -0.01618,-0.00087 -0.0198,0.00644 -0.00377,0.00717 -0.00087,0.01616 0.00634,0.01993z"/>
   <path class="fil1" d="M13.61581 5.15108c0.00732,0.00369 0.01627,0.00087 0.01993,-0.00645 0.00376,-0.00716 0.00086,-0.01608 -0.00638,-0.01984 -0.00724,-0.00377 -0.01619,-0.00087 -0.01985,0.00637 -0.00376,0.00732 -0.0009,0.01623 0.0063,0.01992z"/>
   <path class="fil1" d="M14.45898 3.99648c0.00721,0.00377 0.01619,0.0008 0.01988,-0.00638 0.00363,-0.00732 0.0008,-0.01629 -0.00633,-0.01999 -0.00736,-0.00369 -0.01619,-0.0008 -0.01996,0.00652 -0.00369,0.0071 -0.0008,0.01607 0.00641,0.01985z"/>
   <path class="fil1" d="M15.778 5.52284c0.00724,0.00384 0.01612,0.00094 0.01985,-0.00638 0.00372,-0.00725 0.00087,-0.01609 -0.00638,-0.01978 -0.00725,-0.00383 -0.01618,-0.00101 -0.01985,0.0063 -0.00376,0.00718 -0.00093,0.01616 0.00638,0.01986z"/>
   <path class="fil1" d="M15.81639 3.983c0.00724,0.00385 0.01611,0.0008 0.01977,-0.00637 0.00373,-0.00732 0.00086,-0.01615 -0.00638,-0.01993 -0.00724,-0.00376 -0.01615,-0.00086 -0.01984,0.00653 -0.00377,0.00717 -0.0008,0.01601 0.00645,0.01977z"/>
   <path class="fil1" d="M13.19574 3.28397c0.00963,0.00493 0.0215,0.00115 0.02651,-0.00862 0.00492,-0.00971 0.00115,-0.02159 -0.00859,-0.02652 -0.00974,-0.00492 -0.02155,-0.00108 -0.02658,0.00855 -0.00489,0.00956 -0.00105,0.02151 0.00866,0.02659z"/>
   <path class="fil1" d="M14.58055 2.24027c0.00964,0.00493 0.02144,0.00115 0.0264,-0.00848 0.00504,-0.00978 0.00116,-0.02158 -0.00851,-0.02666 -0.00967,-0.00499 -0.02151,-0.00094 -0.02647,0.00862 -0.00492,0.00971 -0.0012,0.02152 0.00858,0.02652z"/>
   <path class="fil1" d="M16.94918 3.18755c0.00309,0.01043 -0.00271,0.02137 -0.01317,0.02456 -0.01039,0.00318 -0.02137,-0.00276 -0.02452,-0.01312 -0.00322,-0.01043 0.00268,-0.02143 0.01304,-0.02455 0.01042,-0.00326 0.02147,0.00276 0.02465,0.01311z"/>
   <path class="fil1" d="M15.07436 3.68086c0.00236,0.00783 -0.00202,0.01616 -0.00988,0.01847 -0.00775,0.00246 -0.01605,-0.0021 -0.01847,-0.00985 -0.0024,-0.00783 0.00206,-0.01607 0.00981,-0.01833 0.00794,-0.00246 0.01612,0.00203 0.01854,0.00971z"/>
   <path class="fil1" d="M16.33635 4.74694c0.00307,0.01043 -0.00276,0.02137 -0.01315,0.02456 -0.01047,0.00319 -0.0214,-0.00275 -0.02459,-0.01318 -0.00312,-0.01036 0.00271,-0.02137 0.01314,-0.02448 0.01039,-0.0032 0.02137,0.00267 0.0246,0.0131z"/>
   <path class="fil1" d="M15.00078 3.97525c0.00311,0.01043 -0.00276,0.0213 -0.01311,0.02441 -0.01051,0.00326 -0.02141,-0.00253 -0.02463,-0.01281 -0.00308,-0.01051 0.00276,-0.02152 0.01312,-0.02472 0.01042,-0.00318 0.02144,0.00261 0.02462,0.01312z"/>
   <path class="fil1" d="M16.71452 3.41769c0.00468,0.01499 -0.00394,0.03108 -0.01904,0.03571 -0.01503,0.00464 -0.03107,-0.00398 -0.03571,-0.01905 -0.00464,-0.01514 0.00388,-0.03122 0.01904,-0.03571 0.01511,-0.00463 0.03119,0.00383 0.03571,0.01905z"/>
   <polygon class="fil2" points="6.98908,9.84386 6.33356,10.26422 6.56492,11.84154 7.23586,11.54073 "/>
   <polygon class="fil3" points="7.05077,9.89784 6.96979,9.89398 6.36826,10.26807 6.53022,10.33362 7.58675,10.12924 7.5829,10.04825 7.49035,10.02511 6.57649,10.19866 "/>
   <polygon class="fil4" points="7.04691,9.89784 7.07004,10.1061 6.56878,10.20637 "/>
   <path class="fil5" d="M9.53401 10.02511c-0.38945,0.48206 -0.55912,0.84072 -1.00255,1.30736 -0.5514,-0.11184 -1.04497,-0.24682 -1.59637,-0.35866 -0.01928,0.08099 -0.03856,0.16198 -0.06169,0.24296 1.14907,0.41266 1.365,0.66719 1.76217,0.57078 0.38174,-0.09256 0.54369,-0.43965 1.42285,-1.13383 -0.17352,-0.20826 -0.35089,-0.42036 -0.52441,-0.62861z"/>
   <path class="fil6" d="M6.25258 16.03362c-0.0694,0.08485 -0.48585,0.10027 -0.68635,0.06171 -0.20052,-0.03471 -0.32005,-0.13884 -0.32776,-0.01928 -0.01157,0.1157 0.43187,0.33937 0.6478,0.42422 0.21979,0.08484 0.27377,0.1157 0.30848,0.05014 0.0347,-0.06557 0.21979,-0.39338 0.21979,-0.39338l-0.16196 -0.12341z"/>
   <path class="fil7" d="M9.56486 12.54344c-0.26992,0.10798 -1.59252,0.56691 -1.92413,0.70961 -0.32775,0.14654 -1.53081,2.82686 -1.53081,2.82686l0.28919 0.14654c0,0 1.68891,-2.30622 1.7429,-2.31779 0.05398,-0.01157 1.04497,-0.12341 1.44598,-0.26996 0.40102,-0.15041 0.65937,-0.68261 0.55912,-0.9063 -0.0964,-0.21981 -0.58225,-0.18896 -0.58225,-0.18896z"/>
   <path class="fil6" d="M8.28082 17.09804c-0.05013,0.08099 -0.22364,0.32009 -0.34318,0.45121 -0.11568,0.13113 -0.21208,0.28925 -0.15424,0.34324 0.05399,0.05785 0.25064,0.0617 0.45886,-0.1427 0.21208,-0.20824 0.30848,-0.57076 0.30848,-0.57076l-0.26992 -0.08099z"/>
   <path class="fil6" d="M8.31552 17.66881c0.16196,-0.20826 0.23522,-0.48978 0.23522,-0.48978l-0.03856 -0.01157c-0.04242,0.01928 -0.07326,0.0347 -0.07326,0.0347 -0.01543,0 -0.14267,-0.01156 -0.14267,-0.01156 0,0 0.04626,-0.01157 0.0347,0.26224 -0.00385,0.09256 -0.01157,0.16583 -0.01543,0.21597z"/>
   <path class="fil7" d="M9.77308 12.31204c-0.05013,0.05786 -1.23005,2.37179 -1.21462,2.5492 0.01541,0.13883 -0.38175,2.28308 -0.38175,2.28308 0,0 0.40488,0.1774 0.39331,0.06941 -0.01542,-0.10798 0.78276,-2.20209 0.78276,-2.20209 0,0 0.99098,-1.20711 1.15293,-1.53878 0.16195,-0.33165 0.26606,-0.77516 0.14268,-0.92556 -0.1234,-0.15042 -0.87531,-0.23526 -0.87531,-0.23526z"/>
   <path class="fil8" d="M9.6921 9.86314c-0.03856,0.03856 -0.20436,0.1504 -0.25449,0.37022 -0.05399,0.25068 -0.07712,1.14926 -0.05399,1.60047 0.01543,0.24682 -0.26991,0.8253 -0.25063,0.86001 0.30462,0.48978 1.19535,0.60934 1.51154,0.42422 0.35089,-0.20825 0.31618,-2.64945 -0.04627,-3.13923 -0.26607,-0.35095 -0.58226,-0.32781 -0.58226,-0.32781l-0.3239 0.21212z"/>
   <polygon class="fil9" points="7.62146,10.04054 6.33356,10.26422 6.56492,11.84154 7.77954,11.69113 "/>
   <path class="fil10" d="M7.96078 11.27077c-0.027,-0.03471 -0.24679,-0.28924 -0.24679,-0.28924l-0.00385 0.08098c0,0 -0.20822,-0.05013 -0.27763,-0.05784 -0.07326,-0.00771 -0.13496,-0.01929 -0.15809,-0.00386 -0.02314,0.01929 0.01927,0.07713 0.01927,0.07713 0,0 -0.07711,-0.00385 -0.08868,0.03086 -0.01157,0.0347 0.07326,0.0887 0.07326,0.0887 0,0 -0.03084,0 -0.02314,0.0347 0.00386,0.03472 0.05013,0.06557 0.05013,0.06557 0,0 -0.00385,0.02313 0.00772,0.05013 0.01542,0.027 0.26606,0.07327 0.32004,0.09642 0.05399,0.027 0.26992,-0.00772 0.26992,-0.00772l0.05784 -0.16583z"/>
   <path class="fil10" d="M9.63427 9.61245c0.04626,0.13113 0.06169,0.28925 0.06169,0.28925 0,0 0.0347,0.0617 0.14653,-0.01543 0.11182,-0.07713 0.17737,-0.20053 0.17737,-0.20053l-0.04241 -0.3201 -0.34318 0.24681z"/>
   <path class="fil10" d="M9.31422 8.85657c-0.21979,0.50135 0.04627,0.96414 0.37403,0.86773 0.3239,-0.09256 0.34318,-0.43965 0.36246,-0.75974 0.03085,-0.52835 -0.52056,-0.60549 -0.73649,-0.10799z"/>
   <path class="fil11" d="M9.54172 8.86043c-0.10797,0.0347 -0.21979,0.0617 -0.44344,-0.17354 -0.21978,-0.23141 0.10797,-0.42808 0.23137,-0.36638 0.12339,0.0617 0.13495,0.09641 0.28919,0.05399 0.16195,-0.04627 0.47043,-0.02699 0.47814,0.18512 0,0 0.08097,0.05399 0.10411,0.20054 0.01928,0.1157 -0.12339,0.62476 -0.21594,0.67875 -0.02313,0.01543 -0.01541,-0.05399 -0.03856,-0.1504 0,0 0.07327,-0.06942 0.05785,-0.1774 -0.01543,-0.10799 -0.05399,-0.10028 -0.11183,-0.07328 -0.05398,0.027 -0.04241,0.17355 -0.07326,0.15812 -0.0347,-0.01929 -0.02314,-0.07327 -0.01928,-0.17355 0.00386,-0.10027 -0.08483,-0.13112 -0.1311,-0.14268 -0.04242,-0.01543 -0.12725,-0.01929 -0.12725,-0.01929z"/>
   <path class="fil12" d="M5.88627 16.50027c0.21979,0.08484 0.27377,0.1157 0.30848,0.05014 0.00385,-0.00386 0.00771,-0.01157 0.01157,-0.02314 -0.13882,-0.05014 -0.5437,-0.2044 -0.72878,-0.32395 -0.10026,-0.06557 -0.16966,-0.12727 -0.21208,-0.1774 -0.01543,0.00385 -0.02699,0.01927 -0.02699,0.05013 -0.01157,0.1157 0.43187,0.33937 0.6478,0.42422z"/>
   <path class="fil12" d="M7.76798 17.83078c-0.00386,0.027 0,0.05014 0.01542,0.06171 0.05399,0.05785 0.26606,0.05785 0.45886,-0.1427 0.1928,-0.20439 0.2545,-0.29309 0.25064,-0.40493 -0.04627,0.06941 -0.14267,0.23525 -0.25064,0.34709 -0.13495,0.13497 -0.28919,0.21982 -0.47428,0.13883z"/>
   <path class="fil13" d="M8.31552 17.67266c0.13496,-0.1504 0.18124,-0.23138 0.17738,-0.3278 -0.0347,0.05013 -0.0964,0.15811 -0.16966,0.25453 -0.00386,0.027 -0.00772,0.05013 -0.00772,0.07327z"/>
   <path class="fil14" d="M10.19724 9.9017c-0.34704,0.32395 -0.52441,1.3305 -0.85603,1.37679 -0.33546,0.05013 -1.46141,-0.09256 -1.46141,-0.09256 0,0 -0.00385,0.21982 0.00386,0.25067 0.00771,0.027 1.28017,0.36638 1.61564,0.40109 0.33547,0.0347 1.00255,-0.8793 1.21078,-1.22254 0.15038,-0.25067 -0.16581,-1.03354 -0.51284,-0.71345z"/>
   <path class="fil15" d="M9.35278 15.01164c0,0 0.99098,-1.20711 1.15293,-1.53878 0.05399,-0.11184 0.10412,-0.23524 0.13882,-0.3548 -0.08483,0.04629 -0.20823,0.07713 -0.35476,0.08099 0,0 -0.00385,0.19669 -0.18894,0.45508 -0.18894,0.25453 -1.04111,1.24567 -1.04111,1.24567l-0.6555 2.23294 -0.01158 0.03857c0,0 -0.04241,0.01157 -0.09639,0.01929 0.08097,0.03084 0.18123,0.0617 0.23521,0.05785 0.02314,0 0.03856,-0.01158 0.03856,-0.03472 -0.01542,-0.10798 0.78276,-2.20209 0.78276,-2.20209z"/>
   <path class="fil16" d="M10.28977 13.19905c0,0 0.06557,-0.36638 0.1234,-0.76745 0.03413,-0.23406 0.06364,-0.48045 0.07585,-0.67389 0.0071,-0.11253 0.00836,-0.20714 0.00127,-0.27098 -0.01543,-0.13497 -0.03085,-0.30852 -0.04242,-0.48592 0.11183,-0.1504 0.20437,-0.28924 0.26221,-0.38566 0.01157,-0.01928 0.02313,-0.04628 0.02699,-0.07713 0.01545,-0.06952 0.01096,-0.15079 0.00001,-0.22308 -0.00121,-0.00793 -0.0025,-0.01583 -0.00387,-0.02373 0.0216,0.08545 0.03987,0.17214 0.05785,0.25838 0.06383,0.34447 0.09737,0.78039 0.09886,1.19554 0.00212,0.58728 -0.05992,1.13299 -0.19108,1.31937 -0.07648,0.10863 -0.28827,0.13137 -0.40907,0.13455z"/>
   <path class="fil15" d="M8.14201 13.90866c0.0347,-0.00772 0.47428,-0.05785 0.88687,-0.13498 0.10025,-0.20826 0.20822,-0.42422 0.30848,-0.62476l-0.33933 0.40493c0,0 -1.03725,0.16969 -1.0681,0.16969 -0.02699,0 -1.34188,1.936 -1.62336,2.35251 -0.0347,0.05013 -0.05013,0.07713 -0.05013,0.07713l0.12339 0.06555 0.01928 0.00772c0,0 1.68891,-2.30622 1.7429,-2.31779z"/>
   <path class="fil17" d="M6.37983 16.21873l-0.12339 -0.06555c0,0 -0.15424,0.14655 -0.30848,0.27767 0.10798,0.04243 0.20437,0.07713 0.25836,0.09642 0.03856,-0.06556 0.12724,-0.21983 0.17351,-0.30854z"/>
   <path class="fil13" d="M6.20632 16.52727c-0.05399,-0.01929 -0.15038,-0.05399 -0.25836,-0.09642 -0.02313,0.01929 -0.05012,0.04243 -0.07711,0.06556 0.0077,0 0.01156,0.00386 0.01542,0.00386 0.21979,0.08484 0.27377,0.1157 0.30848,0.05014 0.00385,-0.00386 0.00771,-0.01157 0.01157,-0.02314z"/>
   <path class="fil17" d="M8.53146 17.24845c-0.05398,0.00385 -0.15038,-0.02315 -0.22751,-0.054 0.01157,0.01157 0.03856,0.05785 0.027,0.25839 -0.00385,0.05785 -0.00385,0.10412 -0.00771,0.14655 0.07326,-0.09642 0.13496,-0.2044 0.16966,-0.25453 0.01542,-0.03471 0.027,-0.06942 0.03856,-0.09641z"/>
   <path class="fil18" d="M7.71014 11.39418c-0.05398,0.01542 -0.27763,-0.03856 -0.40488,-0.06942 0,0.00386 0.00386,0.01543 0.00772,0.02314 0.01542,0.027 0.26606,0.07327 0.32004,0.09642 0.02314,0.01157 0.07326,0.01157 0.12339,0.00771 0.05399,0 0.10411,-0.00771 0.13111,-0.01157 -0.00386,-0.00386 -0.00386,-0.00386 -0.00386,-0.00386 -0.00386,-0.01157 -0.00386,-0.05013 -0.00386,-0.09255 0,0 -0.06555,0.02314 -0.12725,0.04242 -0.01541,0.00386 -0.03084,0.00771 -0.04241,0.00771z"/>
   <path class="fil19" d="M7.8798 11.34405c0,0.04242 0,0.08098 0.00386,0.09255 0,0 0,0 0.00386,0.00386 0.05012,0.027 0.52055,0.15812 0.95242,0.26225 0.20821,0.05013 0.40487,0.09641 0.54368,0.11955 0.04628,0.00772 0.08484,0.01157 0.11568,0.01543 0.24293,0.02699 0.65552,-0.44351 0.94857,-0.83688 0.11183,-0.1504 0.20436,-0.28924 0.26221,-0.38566 0.01157,-0.01928 0.02313,-0.04627 0.02699,-0.07713 0.01543,-0.06941 0.01157,-0.15811 -0.00386,-0.24681 -0.00771,-0.02699 -0.01927,-0.05399 -0.02699,-0.08098 -0.0347,0.0617 -0.08098,0.14268 -0.14267,0.24681 -0.00771,0.01157 -0.01542,0.027 -0.02699,0.04242 -0.20051,0.30852 -0.91001,1.17625 -1.07582,1.15311 -0.01927,-0.00385 -0.04626,-0.00771 -0.08097,-0.01542 -0.08483,-0.01543 -0.21208,-0.03857 -0.35861,-0.06557 -0.38944,-0.07713 -0.91771,-0.18511 -1.08738,-0.21596 -0.0347,-0.00772 -0.05398,-0.01157 -0.05398,-0.01157z"/>
   <path class="fil20" d="M7.03149 10.14466l-0.6478 0.11184 -0.05013 0.00772 0.17737 1.21866c0.1581,-0.05399 0.30462,-0.13883 0.42802,-0.24296 0.07712,-0.06556 0.14652,-0.13884 0.20436,-0.21982 0.00386,-0.00772 0.00771,-0.01157 0.01157,-0.01929 0.11954,-0.16583 0.19666,-0.35866 0.22365,-0.56691 0.00385,-0.05399 0.00771,-0.10414 0.00771,-0.15811 0,-0.03857 0,-0.07327 -0.00386,-0.10799 -0.00385,-0.027 -0.00771,-0.05784 -0.01157,-0.08484l-0.32775 0.05784 -0.01157 0.00386z"/>
   <path class="fil18" d="M9.66897 9.73201c0.01156,0.05013 0.01928,0.10027 0.02313,0.13113 0.00386,0.02699 0.00386,0.03856 0.00386,0.03856 0,0 0.0347,0.0617 0.14653,-0.01543 0.11182,-0.07713 0.17737,-0.20053 0.17737,-0.20053l-0.00386 -0.03472 -0.03085 -0.21211 -0.00385 0c-0.01156,0.00386 -0.01542,-0.02313 -0.01928,-0.06556 -0.00385,-0.02314 -0.00771,-0.05399 -0.01543,-0.08484 0,0 -0.02313,0.08099 -0.08868,0.16197 -0.05013,0.06171 -0.11954,0.12727 -0.22364,0.16197 -0.08869,0.03472 -0.16196,0.04629 -0.22365,0.054 0.07327,0.05785 0.16195,0.08485 0.25835,0.06556z"/>
   <polygon class="fil21" points="11.20138,11.85708 12.38901,12.59369 12.55096,12.52041 12.84016,11.50999 11.41346,10.88137 11.39804,10.88523 11.4096,10.91223 11.29392,10.9585 11.26693,10.94694 11.25151,10.95464 11.35948,11.02793 "/>
   <polygon class="fil20" points="11.03943,11.93421 12.38901,12.59369 12.67435,11.58712 11.25151,10.95464 "/>
   <polygon class="fil3" points="12.69363,11.57556 12.41985,12.5397 12.54324,12.49341 12.80931,11.52542 11.40574,10.90837 11.2785,10.95464 "/>
   <path class="fil9" d="M12.53168 11.52156c-0.21208,0.21983 -0.57068,0.36638 -0.97556,0.36638 -0.12338,0 -0.24292,-0.01157 -0.35474,-0.03857 -0.04627,-0.01156 -0.09254,-0.02313 -0.13881,-0.03471l-0.02314 0.11955 1.34958 0.65948 0.28534 -1.00657 -0.14267 -0.06556z"/>
   <polygon class="fil22" points="10.76709,15.17062 12.10896,14.75797 12.15909,14.58828 11.5884,13.70899 10.17328,14.36845 10.16556,14.38388 10.19641,14.38774 10.15785,14.50729 10.13086,14.52271 10.12314,14.53814 10.2504,14.50344 "/>
   <polygon class="fil23" points="10.72082,15.34416 12.10896,14.75797 11.53442,13.88253 10.12314,14.53814 "/>
   <polygon class="fil3" points="11.54214,13.85939 12.08583,14.70012 12.13209,14.57671 11.58069,13.73983 10.18869,14.39159 10.13857,14.51501 "/>
   <polygon class="fil7" points="5.53333,12.5246 4.93951,13.78955 5.03206,13.93996 6.06546,14.10964 6.52817,12.62101 6.52047,12.60559 6.49346,12.62101 6.43177,12.51303 6.44334,12.48218 6.43563,12.46675 6.37393,12.58631 "/>
   <polygon class="fil7" points="5.43308,12.37034 4.93951,13.78955 5.97291,13.95538 6.43563,12.46675 "/>
   <polygon class="fil3" points="5.98448,13.97467 4.9935,13.8127 5.05905,13.92839 6.04617,14.08265 6.49732,12.6133 6.43949,12.49375 "/>
   <path class="fil24" d="M6.15414 12.57088c-0.05012,0.33552 -0.34317,0.68647 -0.78276,0.8793 -0.10797,0.05013 -0.21593,0.08484 -0.3239,0.10798 -0.01157,0 -0.01927,0.00386 -0.03085,0.00386l-0.07712 0.22753 1.0334 0.16583 0.46272 -1.48863 -0.27378 -0.027c0.00386,0.04243 0,0.08485 -0.00771,0.13113z"/>
   <path class="fil25" d="M8.53057 3.26701c0.05185,0.00823 3.78859,0.78192 3.86794,0.81096 -0.09455,-0.00028 -3.80917,-0.66464 -3.88915,-0.67734 -0.03695,-0.00587 -0.06216,-0.04054 -0.0563,-0.07744 0.00585,-0.03689 0.02566,-0.06441 0.07751,-0.05618z"/>
   <path class="fil26" d="M13.58965 7.62204c0.03323,0.00528 2.42786,0.50108 2.47871,0.51969 -0.06059,-0.00018 -2.44104,-0.42593 -2.4923,-0.43406 -0.02368,-0.00376 -0.03984,-0.02598 -0.03608,-0.04963 0.00375,-0.02363 0.01644,-0.04127 0.04967,-0.036z"/>
   <polygon class="fil27" points="9.20371,7.02835 9.19735,6.76693 9.94047,6.386 "/>
   <polygon class="fil28" points="9.28201,6.87136 9.20371,7.02835 9.94047,6.386 "/>
   <polygon class="fil29" points="9.20007,6.78374 8.90532,6.59234 9.94047,6.386 "/>
   <path class="fil29" d="M9.28201 6.87136c0,0 0.27043,0.29218 0.27316,0.29883 0.00272,0.00664 0.38687,-0.79201 0.38687,-0.79201l-0.66003 0.49318z"/>
   <path class="fil30" d="M11.88511 8.5238c0.03436,-0.05766 0.02507,-0.12915 -0.01806,-0.17621 0.00545,-0.00551 0.0104,-0.01166 0.01454,-0.01861 0.00361,-0.00605 0.00643,-0.01232 0.0086,-0.01873 0.04652,0.01403 0.09833,-0.0046 0.12434,-0.04823 0.03066,-0.05146 0.01381,-0.11804 -0.03764,-0.1487 -0.00795,-0.00475 -0.01627,-0.00822 -0.02476,-0.01074 0.00057,-0.02585 -0.01235,-0.05127 -0.03615,-0.06545 -0.0352,-0.02099 -0.08074,-0.00946 -0.10173,0.02575 -0.01799,0.03019 -0.01202,0.06795 0.01224,0.09133 -0.00525,0.00953 -0.00894,0.0195 -0.01111,0.02965 -0.03862,-0.00692 -0.07921,0.01004 -0.10048,0.04575 -0.00554,0.00928 -0.00926,0.01912 -0.01143,0.02912 -0.05279,-0.01878 -0.11322,0.00163 -0.14299,0.05161 -0.03389,0.05687 -0.01527,0.13046 0.04159,0.16435 0.00358,0.00214 0.00723,0.00406 0.01094,0.00578 0.00555,0.02459 0.01723,0.04777 0.03459,0.06693 -0.01313,0.00546 -0.02468,0.01495 -0.03251,0.02809 -0.01937,0.0325 -0.00873,0.07454 0.02376,0.09391 0.0325,0.01938 0.07454,0.00873 0.09391,-0.02376 0.00942,-0.01581 0.01168,-0.03387 0.00784,-0.05049 0.05623,0.00646 0.11365,-0.01958 0.14451,-0.07135z"/>
   <path class="fil31" d="M11.65975 9.52098c-0.12808,0.21495 -0.40616,0.28538 -0.62111,0.15724 -0.21492,-0.12813 -0.28525,-0.40624 -0.15716,-0.6212 0.10418,-0.17481 0.30752,-0.25401 0.49543,-0.2086l0.15925 -0.26722 0.23058 0.13745 -0.15926 0.26723c0.12936,0.14372 0.15645,0.36029 0.05227,0.5351z"/>
   <path class="fil22" d="M11.5699 8.60132l0.16309 0.09722 -0.17407 0.29211 0.01938 0.02151c0.12108,0.13454 0.14059,0.33287 0.04772,0.48871 -0.11701,0.19633 -0.37095,0.26063 -0.56728,0.1436 -0.19629,-0.11702 -0.26051,-0.37101 -0.14352,-0.56733 0.09287,-0.15583 0.27654,-0.23305 0.45246,-0.19052l0.02815 0.0068 0.17407 -0.2921z"/>
   <path class="fil32" d="M11.14295 9.69685c-0.03123,-0.00977 -0.06179,-0.02331 -0.09111,-0.04078 -0.09804,-0.05844 -0.16744,-0.15157 -0.19543,-0.26222 -0.02799,-0.11063 -0.01122,-0.22558 0.04721,-0.32362 0.09648,-0.1619 0.28426,-0.24096 0.46724,-0.19674l0.01848 0.00446 0.17588 -0.29514 0.18627 0.11104 -0.17589 0.29516 0.01275 0.01413c0.12593,0.13994 0.14573,0.34274 0.04927,0.50463 -0.10314,0.1731 -0.31027,0.24679 -0.49467,0.18908zm0.43163 -1.07702l0 0 -0.17224 0.28906 -0.03782 -0.00916c-0.17141,-0.04141 -0.34732,0.03265 -0.43769,0.18431 -0.05476,0.09186 -0.07047,0.19953 -0.04426,0.30319 0.02622,0.10366 0.09124,0.19089 0.18309,0.24563 0.1896,0.11307 0.43579,0.05073 0.54875,-0.13891 0.0904,-0.15168 0.07186,-0.34166 -0.04615,-0.47274l-0.02602 -0.02892 0.17224 -0.28908 -0.1399 -0.08338z"/>
   <path class="fil20" d="M10.88067 9.15048l0.69729 0.41567c-0.12946,0.14394 -0.34661,0.18121 -0.51922,0.07832 -0.17258,-0.10288 -0.24307,-0.31164 -0.17807,-0.49399z"/>
   <path class="fil33" d="M11.34633 9.29407c0.01045,-0.01754 0.00469,-0.04023 -0.01282,-0.05066 -0.01753,-0.01045 -0.04018,-0.00471 -0.05063,0.01284 -0.01045,0.01753 -0.00472,0.04018 0.01281,0.05063 0.01751,0.01044 0.04019,0.00472 0.05064,-0.01281z"/>
   <path class="fil33" d="M11.23572 9.34785c0.00828,-0.01389 0.00375,-0.03183 -0.01012,-0.0401 -0.01384,-0.00825 -0.0318,-0.00371 -0.04008,0.01018 -0.00827,0.01387 -0.00369,0.03179 0.01014,0.04005 0.01388,0.00826 0.0318,0.00376 0.04006,-0.01013z"/>
   <path class="fil33" d="M11.17949 9.42839c0.00511,-0.00859 0.00234,-0.01968 -0.00625,-0.02479 -0.00857,-0.00511 -0.01969,-0.00231 -0.02481,0.00627 -0.00511,0.00858 -0.00227,0.01969 0.00629,0.0248 0.00859,0.0051 0.01966,0.0023 0.02477,-0.00628z"/>
   <path class="fil33" d="M11.11284 9.51284c-0.00827,0.01388 -0.00374,0.03183 0.01013,0.0401 0.01387,0.00828 0.03183,0.00372 0.04009,-0.01016 0.00827,-0.01387 0.00371,-0.03178 -0.01016,-0.04005 -0.01387,-0.00827 -0.0318,-0.00376 -0.04006,0.01011z"/>
   <path class="fil33" d="M11.19431 9.46328c-0.00512,0.0086 -0.0023,0.01971 0.00628,0.02483 0.00856,0.00511 0.01968,0.0023 0.0248,-0.0063 0.00511,-0.00857 0.00227,-0.01966 -0.00629,-0.02476 -0.00859,-0.00512 -0.01967,-0.00234 -0.02479,0.00623z"/>
   <path class="fil33" d="M11.09554 9.4364c0.0049,-0.00823 0.0022,-0.01888 -0.00602,-0.02377 -0.00822,-0.00491 -0.01886,-0.00221 -0.02376,0.00602 -0.0049,0.00822 -0.00221,0.01886 0.00601,0.02375 0.00822,0.00491 0.01886,0.00222 0.02377,-0.006z"/>
   <path class="fil34" d="M11.53011 8.98371c0.12199,0.13305 0.16113,0.35084 0.07131,0.50158 -0.10177,0.17079 -0.31488,0.23577 -0.49954,0.16202 0.15947,0.02497 0.32307,-0.04384 0.4084,-0.18704 0.10352,-0.17373 0.07111,-0.37167 -0.0623,-0.51722l0.15165 -0.25553 0.07825 0.04665 -0.14777 0.24954z"/>
   <path class="fil34" d="M11.33364 9.05972c-0.15106,0.04465 -0.3219,0.15764 -0.37493,0.27212 -0.02461,-0.20724 0.07989,-0.36443 0.26404,-0.40992l0.11089 0.1378z"/>
   <path class="fil33" d="M11.8203 8.73179c-0.012,0.02012 -0.03693,0.02738 -0.05568,0.0162l-0.25324 -0.15097c-0.01876,-0.01118 -0.02422,-0.03656 -0.01223,-0.05668l0.00334 -0.00561c0.01198,-0.02012 0.03689,-0.02736 0.05565,-0.01618l0.25324 0.15096c0.01876,0.01119 0.02425,0.03655 0.01226,0.05667l-0.00334 0.00561z"/>
   <path class="fil31" d="M7.56841 9.1356l0.16614 -0.65273 -0.0009 -0.00417 -0.04128 -0.18963 -0.03011 -0.13831 0.24515 -0.05338 0.0301 0.13831 0.04128 0.18964 0.00091 0.00416 0.42241 0.52458c0.05598,0.06952 0.05638,0.15244 -0.04657,0.17486l-0.33605 0.07317 -0.33605 0.07317c-0.10295,0.02241 -0.13705,-0.05317 -0.11503,-0.13967z"/>
   <path class="fil22" d="M7.88164 8.13751l-0.17925 0.03903 0.06681 0.30693 -0.16811 0.66045c-0.00654,0.02568 -0.01043,0.06669 0.00954,0.08793 0.01617,0.01719 0.04476,0.015 0.06564,0.01046l0.6721 -0.14634c0.02088,-0.00455 0.0478,-0.01445 0.05535,-0.03681 0.00932,-0.02762 -0.01125,-0.06329 -0.02788,-0.08393l-0.42739 -0.53079 -0.06681 -0.30693z"/>
   <path class="fil20" d="M8.17052 8.72022l-0.48867 0.10641 -0.08076 0.31729c-0.00654,0.02568 -0.01043,0.06669 0.00954,0.08793 0.01617,0.01719 0.04476,0.015 0.06564,0.01046l0.6721 -0.14634c0.02088,-0.00455 0.0478,-0.01445 0.05535,-0.03681 0.00932,-0.02762 -0.01125,-0.06329 -0.02788,-0.08393l-0.20532 -0.25501z"/>
   <path class="fil33" d="M8.04957 8.88514c0.00227,0.01042 -0.00433,0.02067 -0.01476,0.02294 -0.01039,0.00226 -0.0207,-0.00431 -0.02296,-0.01472 -0.00227,-0.01043 0.00436,-0.02074 0.01476,-0.023 0.01042,-0.00227 0.0207,0.00436 0.02296,0.01478z"/>
   <path class="fil33" d="M8.03448 8.9875c0.00228,0.01045 -0.00434,0.02072 -0.0148,0.023 -0.0104,0.00227 -0.02065,-0.00434 -0.02293,-0.01479 -0.00225,-0.01041 0.00432,-0.02068 0.01473,-0.02294 0.01045,-0.00228 0.02073,0.00432 0.023,0.01473z"/>
   <path class="fil33" d="M7.99286 8.91947c0.00107,0.00492 -0.00205,0.00979 -0.007,0.01087 -0.00488,0.00106 -0.0098,-0.00206 -0.01087,-0.00699 -0.00107,-0.00489 0.00211,-0.00977 0.00699,-0.01083 0.00495,-0.00108 0.00981,0.00205 0.01088,0.00695z"/>
   <path class="fil33" d="M8.06675 9.04506c0.00106,0.0049 -0.00208,0.00978 -0.00697,0.01084 -0.00492,0.00108 -0.0098,-0.00206 -0.01086,-0.00697 -0.00108,-0.00492 0.00205,-0.00982 0.00698,-0.01089 0.00488,-0.00105 0.00977,0.00209 0.01085,0.00702z"/>
   <path class="fil33" d="M7.98931 8.80873c0.00288,0.01322 -0.00549,0.02622 -0.01872,0.0291 -0.01317,0.00287 -0.02625,-0.00546 -0.02913,-0.01868 -0.00287,-0.01322 0.00554,-0.02629 0.01871,-0.02916 0.01324,-0.00288 0.02627,0.00552 0.02914,0.01874z"/>
   <path class="fil34" d="M7.78541 8.17186l-0.06363 0.01386 0.06429 0.29531 -0.16175 0.63543c-0.00629,0.02471 -0.01003,0.06415 0.00919,0.0846 0.01555,0.01654 0.04305,0.01444 0.06314,0.01006l0.06363 -0.01386 -0.00042 -0.00192c-0.02009,0.00438 -0.0476,0.00648 -0.06314,-0.01007 -0.01922,-0.02044 -0.01549,-0.05988 -0.00919,-0.08459l0.16174 -0.63543 -0.06386 -0.29339z"/>
   <polygon class="fil34" points="8.01031,8.57139 7.94756,8.58505 8.09851,8.781 8.16708,8.76607 "/>
   <polygon class="fil34" points="8.20879,8.81786 8.13867,8.83313 8.2896,9.02908 8.36555,9.01254 "/>
   <path class="fil31" d="M7.66539 8.12377l0.22795 -0.04963c0.01585,-0.00345 0.03162,0.00669 0.03508,0.02254l0.00033 0.0015c0.00344,0.01585 -0.00669,0.03163 -0.02253,0.03508l-0.22796 0.04964c-0.01584,0.00345 -0.03162,-0.0067 -0.03507,-0.02254l-0.00033 -0.00151c-0.00344,-0.01584 0.0067,-0.03163 0.02253,-0.03508z"/>
   <path class="fil22" d="M13.34105 10.2232l-0.5005 -0.26802c-0.03754,-0.02011 -0.1706,0.08512 -0.17301,0.1607l0.38197 0.34407 0.29154 -0.23675z"/>
   <polygon class="fil35" points="12.69617,10.04765 13.19522,10.43497 13.19881,10.43076 12.69976,10.04345 "/>
   <path class="fil36" d="M13.61549 10.16697c0,0 0.05002,0.18424 0.08111,0.22024 0.03106,0.03599 0.0956,0.00562 0.04193,-0.08615 -0.05368,-0.09176 -0.08704,-0.14225 -0.08704,-0.14225 0,0 -0.02068,0.0117 -0.036,0.00816z"/>
   <path class="fil35" d="M13.61548 10.16697c0,0 0.05003,0.18424 0.08112,0.22024 0.00449,0.00519 0.00967,0.00901 0.01509,0.01145 0.02905,0.00303 0.05612,-0.03125 0.01551,-0.10069 -0.04248,-0.07265 -0.07225,-0.1194 -0.08281,-0.13575 -0.00739,0.00314 -0.01921,0.00699 -0.02891,0.00475z"/>
   <path class="fil35" d="M13.55893 10.11274c0.0012,-0.00101 0.00298,-0.00242 0.00527,-0.0041 0.02423,-0.01777 0.08881,-0.03872 0.11015,-0.00342 0.02185,0.03614 -0.02454,0.10938 -0.04747,0.10167 -0.00736,-0.00248 -0.06535,-0.09624 -0.06795,-0.09415z"/>
   <path class="fil35" d="M13.61916 10.09626c0,0 -0.05144,-0.1835 -0.08305,-0.21995 -0.03159,-0.03644 -0.09676,-0.00824 -0.04205,0.08397 0.05472,0.0922 0.08871,0.14302 0.08871,0.14302 0,0 0.02087,-0.01097 0.03639,-0.00704z"/>
   <path class="fil37" d="M13.40879 10.75563c-0.02939,0.00804 -0.04628,0.03994 -0.03772,0.07127 0.00855,0.03133 0.03932,0.0502 0.06872,0.04217 0.02939,-0.00804 0.04629,-0.03994 0.03773,-0.07126 -0.00856,-0.03133 -0.03933,-0.05022 -0.06873,-0.04218z"/>
   <path class="fil35" d="M13.34544 10.8317c0.00331,0.01456 0.00461,0.03536 0.04468,0.03421 0.04006,-0.00115 0.12165,-0.06336 0.10026,-0.10029 -0.02138,-0.03695 -0.06022,-0.04366 -0.09608,-0.02597 -0.05125,0.02527 -0.04886,0.09205 -0.04886,0.09205z"/>
   <path class="fil35" d="M13.34544 10.8317c0.00214,0.00946 0.00345,0.02155 0.01509,0.02853 0.00223,0.00011 0.0046,0.00012 0.00713,0.00005 0.04006,-0.00115 0.12166,-0.06336 0.10027,-0.10029 -0.00822,-0.0142 -0.01903,-0.02394 -0.03126,-0.02953 -0.01376,-0.00093 -0.02829,0.00224 -0.04237,0.00919 -0.05125,0.02527 -0.04886,0.09205 -0.04886,0.09205z"/>
   <path class="fil35" d="M13.31566 10.6321c0.01682,0.01915 0.04343,0.05641 0.07314,0.12432 0.02738,0.00374 0.03321,-0.01912 0.03321,-0.01912l-0.03823 -0.13477 -0.06812 0.02957z"/>
   <path class="fil35" d="M13.34482 10.61944c0.0184,0.0296 0.04935,0.08206 0.0645,0.13379 0.01001,-0.00564 0.01269,-0.01593 0.01269,-0.01593 -0.01156,-0.05736 -0.02368,-0.09739 -0.03683,-0.13537l-0.04036 0.01751z"/>
   <path class="fil36" d="M12.85194 10.69599c-0.00265,-0.00403 -0.20313,0.16455 -0.20313,0.16455 0,0 -0.13699,-0.20533 -0.1451,-0.25572 -0.0081,-0.05037 0.0631,-0.08344 0.11041,-0.0709 0.0473,0.01254 0.2416,0.16284 0.23782,0.16207z"/>
   <path class="fil36" d="M12.60852 10.96011c-0.01858,-0.01242 -0.01141,-0.0446 -0.01141,-0.0446 0,0 0.39146,-0.3933 0.44132,-0.45148 0.04986,-0.0582 0.4139,-0.37342 0.44914,-0.38634 0.03524,-0.01292 0.06262,-0.01851 0.13723,0.05022 0.07463,0.06874 0.07859,0.13645 0.06311,0.16429 -0.01548,0.02784 -0.28208,0.27891 -0.34534,0.32092 -0.06326,0.042 -0.73405,0.34699 -0.73405,0.34699z"/>
   <path class="fil35" d="M13.64143 10.20115l0.00261 0.00317c-0.00108,0.00094 -0.37221,0.3267 -0.46083,0.39174 -0.06243,0.0458 -0.33104,0.20517 -0.48033,0.29374 -0.05936,0.03522 -0.10044,0.05668 -0.10007,0.05792 0.00009,0.00035 -0.00024,0.0004 -0.0007,0.00028l-0.00103 0.00043 0.00073 0.00197c-0.00139,0.00057 -0.00231,0.00027 -0.00284,-0.00103l-0.00002 -0.00008c-0.0001,-0.00027 0.0005,-0.00092 0.00174,-0.00192l0.00039 0.00105 0.00095 -0.00044c-0.00043,-0.00011 -0.00095,-0.00036 -0.00132,-0.00062 0.00848,-0.00676 0.04683,-0.02951 0.1002,-0.06117 0.14923,-0.08854 0.41773,-0.24784 0.47998,-0.29353 0.08844,-0.06489 0.45947,-0.39057 0.46054,-0.39151zm-1.04072 0.74621l0 0 -0.00004 -0.00003 0.00002 0.00004 0.00002 -0.00001zm-0.00035 -0.00085l0 0c-0.00039,0.00016 -0.00015,0.0005 0.00031,0.00082l-0.00031 -0.00082z"/>
   <path class="fil35" d="M13.6641 10.31983c0.00127,-0.02239 -0.01281,-0.09759 -0.08391,-0.16309 -0.05911,-0.05445 -0.09075,-0.06567 -0.11843,-0.06228 0.0126,-0.00931 0.02158,-0.01522 0.02581,-0.01677 0.03524,-0.01292 0.06262,-0.01851 0.13723,0.05022 0.07463,0.06874 0.07859,0.13645 0.06311,0.16429 -0.00241,0.00434 -0.01092,0.0141 -0.02381,0.02763z"/>
   <path class="fil22" d="M13.51315 10.39512l0.39696 0.42726c0.02885,0.03104 -0.10315,0.13277 -0.17315,0.16154 -0.17038,-0.12618 -0.34076,-0.25238 -0.51116,-0.37856 0.01505,-0.03063 0.23518,-0.22246 0.28735,-0.21024z"/>
   <path class="fil35" d="M13.91387 10.82997c0.0067,0.0374 -0.11245,0.12536 -0.17778,0.15121 -0.00005,0.00001 0.03279,-0.03545 0.0569,-0.05835 0.00367,-0.00347 0.00713,-0.00667 0.01024,-0.0094 0.02361,-0.02071 0.10956,-0.08267 0.11064,-0.08346z"/>
   <polygon class="fil35" points="13.31496,10.51755 13.7929,10.92282 13.80373,10.94473 13.80752,10.94226 13.79668,10.91936 13.31993,10.51333 "/>
   <path class="fil22" d="M12.87669 10.6841c-0.00769,-0.00885 -0.16496,0.00904 -0.24087,-0.05033 -0.05706,-0.04463 -0.16206,0.03783 -0.15784,0.0555 0.00422,0.01766 0.1312,0.23658 0.1312,0.23658 0.09297,-0.06567 0.29119,-0.22414 0.26751,-0.24175z"/>
   <path class="fil22" d="M13.30773 10.33525l-0.00586 -0.09318c0.04031,-0.03621 0.10888,-0.05269 0.14103,-0.02754 0.00306,0.0024 0.0058,0.00517 0.00814,0.00834 0.01659,0.02241 -0.00411,0.08347 -0.05434,0.11613l-0.08897 -0.00375z"/>
   <path class="fil38" d="M13.3967 10.339c0,0 -0.00546,-0.05035 -0.02836,-0.0762 -0.02288,-0.02585 -0.05468,-0.0317 -0.06647,-0.02073 -0.01179,0.01097 -0.01009,0.03272 -0.01009,0.03272l0.04454 0.05118 0.06038 0.01303z"/>
   <path class="fil37" d="M13.14974 10.39266c0.00867,-0.00175 0.13835,-0.1218 0.14204,-0.11787 0.0037,0.00394 0.10492,0.06421 0.10492,0.06421l-0.12505 0.10481 -0.12191 -0.05115z"/>
   <path class="fil39" d="M13.20219 10.35829c0.00003,-0.0027 0.00653,-0.03471 0.01869,-0.04105 0.01217,-0.00634 0.07025,0.01356 0.07309,0.00986 0.00284,-0.00371 0.02483,0.01389 0.04199,0.02815 0.01715,0.01425 0.01706,0.02036 0.01706,0.02036l-0.06118 0.0513c0,0 -0.04012,0.00438 -0.04806,0.00065 -0.00794,-0.00373 -0.04159,-0.06927 -0.04159,-0.06927z"/>
   <path class="fil35" d="M12.97399 10.58639c-0.01529,0.0557 0.21856,-0.06035 0.31784,-0.15948 0,0 -0.04726,-0.06164 -0.07701,-0.08947 -0.04871,-0.04556 -0.20989,0.13619 -0.24083,0.24895z"/>
   <path class="fil40" d="M13.23646 10.20428c-0.03351,0.01229 -0.05134,0.05131 -0.03982,0.08718 0.01154,0.03584 0.04806,0.05495 0.08158,0.04267 0.03351,-0.01228 0.05133,-0.0513 0.0398,-0.08716 -0.01152,-0.03586 -0.04804,-0.05498 -0.08156,-0.04269z"/>
   <path class="fil39" d="M13.21185 10.32812c0,0 0.02671,0.01893 0.05479,0.01126 0.02807,-0.00768 0.03017,-0.01599 0.03017,-0.01599 0,0 -0.00924,-0.04337 -0.00545,-0.04406 0.00377,-0.00068 0.02209,-0.0053 0.03172,-0.02008 0.00961,-0.01478 -0.00239,-0.04695 -0.02292,-0.05795 -0.03484,-0.01864 -0.10383,-0.01329 -0.1134,0.04609 -0.0042,0.02605 0.02509,0.08073 0.02509,0.08073z"/>
   <path class="fil36" d="M13.5123 9.86169c-0.02494,0.00397 -0.0423,0.03704 -0.00553,0.09898 0.04166,0.07023 0.07131,0.11644 0.08308,0.1345 0.00102,0.00154 0.00189,0.00289 0.00264,0.00402 -0.00038,0.00013 -0.00075,0.00026 -0.00111,0.0004 -0.00148,-0.00113 -0.00295,-0.00222 -0.00439,-0.00327 -0.00554,-0.00406 -0.01075,-0.00757 -0.01569,-0.01057 -0.01429,-0.02218 -0.0413,-0.0649 -0.07724,-0.12547 -0.04281,-0.07215 -0.01223,-0.1051 0.01824,-0.09859z"/>
   <path class="fil36" d="M12.70052 10.90807c0.00207,0.00452 0.21976,-0.12726 0.21976,-0.12726 0,0 0.1069,0.23048 0.10824,0.28234 0.00132,0.05187 -0.07249,0.07187 -0.11702,0.05064 -0.04454,-0.02122 -0.21456,-0.20719 -0.21098,-0.20572z"/>
   <path class="fil20" d="M7.28486 4.75216c0.0174,-0.01081 0.04218,-0.01773 0.06319,-0.02199 -0.33537,0.06393 -0.65483,0.37139 -0.66054,0.73835 -0.0076,0.4896 0.46746,0.85379 0.58306,0.93513 -0.90073,-1.16057 0.01429,-1.65149 0.01429,-1.65149z"/>
   <path class="fil20" d="M7.33308 6.40825l0.08258 0.00085c-0.3097,-1.1539 0.02683,-1.68314 0.02683,-1.68314 0.00664,-0.0033 0.01311,-0.00582 0.01939,-0.00775 -0.03087,0.00061 -0.06184,0.00337 -0.09277,0.0083 0.01188,-0.00175 0.01986,-0.00244 0.01986,-0.00244 -0.62379,0.48172 -0.10275,1.58815 -0.05589,1.68418z"/>
   <path class="fil20" d="M7.53138 6.41036l0.08239 0.00087c0.05332,-0.09707 0.62397,-1.17258 0.01665,-1.67256 0,0 -0.00026,-0.00112 0.00567,-0.00055 -0.03262,-0.00796 -0.06546,-0.01358 -0.09812,-0.01684 0.0008,0.0004 0.00155,0.00077 0.00155,0.00077 0.25943,0.50479 0.00683,1.62335 -0.00814,1.68831z"/>
   <path class="fil20" d="M7.67969 6.40453c0.12204,-0.0905 0.57464,-0.45594 0.59042,-0.91141 0.01142,-0.32839 -0.24846,-0.61733 -0.54495,-0.72758 0.10367,0.06728 0.8202,0.58844 -0.04547,1.63899z"/>
   <path class="fil22" d="M7.33308 6.40825c-0.04686,-0.09603 -0.5679,-1.20246 0.05589,-1.68418 0,0 -0.00798,0.00069 -0.01986,0.00244 -0.00702,0.00109 -0.01404,0.00234 -0.02106,0.00366 -0.02101,0.00426 -0.04579,0.01118 -0.06319,0.02199 0,0 -0.91502,0.49092 -0.01429,1.65149 0.00205,0.00147 0.00381,0.00271 0.00564,0.00396l0.05687 0.00064z"/>
   <path class="fil22" d="M7.63042 4.73867c0.60732,0.49998 0.03667,1.57549 -0.01665,1.67256l0.05436 0.00063 -0.00078 0.00173c0.00365,-0.0026 0.00775,-0.00567 0.01234,-0.00906 0.86567,-1.05055 0.14914,-1.57171 0.04547,-1.63899 -0.02944,-0.01095 -0.0591,-0.02014 -0.08907,-0.02742 -0.00593,-0.00057 -0.00567,0.00055 -0.00567,0.00055z"/>
   <path class="fil22" d="M7.41566 6.4091l0.11572 0.00126c0.01497,-0.06496 0.26757,-1.18352 0.00814,-1.68831 0,0 -0.00075,-0.00037 -0.00155,-0.00077 -0.01808,-0.0018 -0.03612,-0.00309 -0.05406,-0.00337 -0.00734,-0.00011 -0.01469,0.00018 -0.02203,0.0003 -0.00628,0.00193 -0.01275,0.00445 -0.01939,0.00775 0,0 -0.33653,0.52924 -0.02683,1.68314z"/>
   <polygon class="fil22" points="7.31042,6.66544 7.29017,6.45597 7.29775,6.45527 7.30342,6.51379 7.32998,6.464 7.33671,6.46756 7.30472,6.52748 7.31801,6.66471 "/>
   <polygon class="fil22" points="7.46167,6.66742 7.46467,6.53198 7.41762,6.47015 7.4237,6.46553 7.46495,6.51974 7.46668,6.44194 7.47427,6.4421 7.4726,6.51844 7.51016,6.46588 7.51636,6.47029 7.47229,6.53191 7.46928,6.66756 "/>
   <polygon class="fil22" points="7.62004,6.66703 7.6363,6.53409 7.59921,6.46798 7.60587,6.46426 7.63786,6.52129 7.6452,6.46122 7.65276,6.46213 7.6276,6.66797 "/>
   <polygon class="fil22" points="7.64974,6.47506 7.29183,6.46949 7.20272,6.35426 7.73654,6.36256 "/>
   <path class="fil22" d="M7.28095 6.45542l-0.0128 -0.01653 0.40464 0.00627 -0.01246 0.01615 -0.37938 -0.00589zm-0.05277 -0.06824l0 0 -0.01278 -0.01653 0.5088 0.00791 -0.01247 0.01614 -0.48355 -0.00752z"/>
   <path class="fil41" d="M7.6291 6.85003c0.02321,-0.05325 0.00289,-0.18532 0.00289,-0.18532l-0.32682 -0.00508c0,0 -0.02442,0.13138 -0.00287,0.18533 0.01738,0.04357 0.30808,0.04809 0.3268,0.00507z"/>
   <path class="fil22" d="M7.63446 6.8335c0.01428,-0.05989 -0.00247,-0.16879 -0.00247,-0.16879l-0.32682 -0.00508c0,0 -0.02013,0.10832 -0.00771,0.16865 0.07214,0.02328 0.26416,0.02629 0.337,0.00522z"/>
   <polygon class="fil42" points="7.29582,6.67212 7.64618,6.67758 7.64648,6.65879 7.29611,6.65334 "/>
   <path class="fil43" d="M13.72929 3.72087c0.37411,0.04255 0.6717,0.12708 0.66468,0.18881 -0.00369,0.03244 -0.09085,0.05212 -0.22701,0.05732l-0.91941 -0.10457c-0.13152,-0.03564 -0.21204,-0.07438 -0.20835,-0.10683 0.00702,-0.06173 0.31599,-0.07727 0.69009,-0.03473z"/>
   <path class="fil20" d="M13.72607 3.76283c0.1239,0.01408 0.23542,-0.06651 0.24825,-0.1794 0.01284,-0.11291 -0.07774,-0.21649 -0.20164,-0.23057 -0.1239,-0.0141 -0.23541,0.06649 -0.24825,0.1794 -0.01284,0.1129 0.07774,0.21647 0.20164,0.23057z"/>
   <path class="fil44" d="M13.97439 3.54476c0.13754,0.03309 0.22803,0.07655 0.22375,0.11411 -0.0063,0.05547 -0.21675,0.07707 -0.47007,0.04826 -0.25332,-0.0288 -0.45355,-0.09712 -0.44725,-0.15259 0.00428,-0.03756 0.10221,-0.05959 0.24367,-0.06095l0.4499 0.05117z"/>
   <path class="fil7" d="M13.71384 3.83232l-0.67739 -0.07704c0.02516,-0.10983 0.18737,-0.17942 0.24437,-0.20074l0.91733 0.10433c0.05076,0.03357 0.19322,0.13782 0.19308,0.25049l-0.67739 -0.07704z"/>
   <path class="fil33" d="M13.60625 3.42945c-0.02066,0.02596 -0.01992,0.04964 0.01664,0.05589 0.03656,0.00624 0.02881,-0.02355 0.04801,-0.06073 0.0192,-0.03719 0.07566,-0.05272 0.06363,-0.05721 -0.0331,-0.0124 -0.10761,0.03608 -0.12828,0.06205z"/>
   <path class="fil45" d="M18.40781 7.16568c0,0.45028 -0.36497,0.81531 -0.81518,0.81531 -0.45021,0 -0.81518,-0.36503 -0.81518,-0.81531 0,-0.45029 0.36497,-0.81532 0.81518,-0.81532 0.45021,0 0.81518,0.36503 0.81518,0.81532z"/>
   <path class="fil46" d="M17.21751 6.44168c0.34583,0.00807 0.69817,0.12771 1.0606,0.28262 -0.09109,-0.14124 -0.22464,-0.25248 -0.38257,-0.31575 -0.18641,-0.03483 -0.37027,-0.04095 -0.55633,-0.01795 -0.04217,0.01379 -0.08285,0.03091 -0.1217,0.05108z"/>
   <path class="fil46" d="M18.20345 6.96223c-0.44693,-0.15394 -0.90104,-0.15719 -1.35026,-0.14007 0.03087,-0.06635 0.07039,-0.12785 0.11713,-0.18306 0.14038,0.00092 0.28001,0.01478 0.42002,0.04185 0.27572,0.0533 0.53017,0.18679 0.81311,0.28128z"/>
   <path class="fil46" d="M16.96441 6.99456c0.08489,-0.00322 0.16473,0.0257 0.24323,0.05551 0.37173,0.14082 0.76522,0.30698 1.10904,0.49047 0.03852,-0.07428 0.06592,-0.15525 0.08008,-0.24069 -0.1844,-0.06579 -0.38705,-0.11633 -0.55988,-0.16225 -0.27874,-0.07504 -0.58724,-0.15475 -0.87247,-0.14304z"/>
   <path class="fil46" d="M17.84798 7.6868c-0.32278,-0.10051 -0.66478,-0.17301 -1.00946,-0.21109 -0.02348,-0.05707 -0.04067,-0.11741 -0.05073,-0.18012 0.03274,0.00857 0.06363,0.01688 0.09148,0.02393 0.16814,0.04111 0.33367,0.09677 0.49547,0.16024 0.15991,0.06259 0.31524,0.1584 0.47324,0.20704z"/>
   <path class="fil46" d="M17.91983 7.91259c-0.20961,-0.08577 -0.43688,-0.16374 -0.67052,-0.22539 0.15063,0.09173 0.29515,0.19048 0.42994,0.28921 0.08474,-0.00898 0.1656,-0.03092 0.24058,-0.06382z"/>
   <path class="fil47" d="M18.13125 6.75102c-0.38121,-0.14018 -0.76193,-0.15652 -1.13991,-0.13582 0.0602,-0.06574 0.13103,-0.12157 0.20976,-0.16478 0.04797,0.005 0.09597,0.01187 0.14411,0.02063 0.26232,0.04788 0.5077,0.18107 0.78604,0.27997z"/>
   <path class="fil47" d="M17.0342 6.84481c0.08358,-0.00431 0.16168,0.02401 0.23886,0.05338 0.36352,0.13782 0.75393,0.30509 1.10354,0.49161 0.02032,-0.07121 0.03121,-0.1464 0.03121,-0.22412 0,-0.0093 -0.00022,-0.01855 -0.00053,-0.02778 -0.17225,-0.06063 -0.35471,-0.10893 -0.51176,-0.15189 -0.27734,-0.07709 -0.58066,-0.15665 -0.86132,-0.1412z"/>
   <path class="fil47" d="M17.95254 7.46287c-0.37779,-0.11681 -0.77342,-0.191 -1.17035,-0.20915 -0.0031,-0.02893 -0.00474,-0.05829 -0.00474,-0.08804 0,-0.03662 0.00245,-0.07267 0.00713,-0.10802 0.07243,0.0145 0.14232,0.03301 0.19981,0.04648 0.16565,0.03741 0.32946,0.09076 0.49101,0.15292 0.15954,0.06134 0.31614,0.15669 0.47714,0.20581z"/>
   <path class="fil47" d="M17.61307 7.91211c-0.20729,-0.09148 -0.42932,-0.17251 -0.65685,-0.23698 0.0067,0.00836 0.01352,0.01661 0.02054,0.0247 0.12171,0.07523 0.24015,0.15572 0.35352,0.238 0.08232,0.02798 0.17057,0.04316 0.26235,0.04316 0.05117,0 0.10122,-0.00476 0.14976,-0.01378 -0.04577,-0.02029 -0.09131,-0.03817 -0.12932,-0.0551z"/>
   <path class="fil48" d="M18.35605 6.98881c0,0.40979 -0.35338,0.74198 -0.7893,0.74198 -0.40533,0 -0.73926,-0.28723 -0.78412,-0.65698 0.04565,-0.40702 0.39085,-0.72344 0.81,-0.72344 0.33453,0 0.62194,0.20157 0.74758,0.48987 0.01037,0.048 0.01584,0.09769 0.01584,0.14857z"/>
   <path class="fil49" d="M17.95368 6.70841c0,0.27399 -0.23627,0.49609 -0.52773,0.49609 -0.28123,0 -0.51105,-0.20678 -0.52684,-0.46743 0.14369,-0.23208 0.40054,-0.3867 0.69352,-0.3867 0.08087,0 0.15896,0.01183 0.2327,0.03377 0.07997,0.08695 0.12835,0.2003 0.12835,0.32427z"/>
   <path class="fil50" d="M12.05402 5.20053c0,0.37474 -0.30374,0.67853 -0.67841,0.67853 -0.37469,0 -0.67844,-0.30379 -0.67844,-0.67853 0,-0.37474 0.30375,-0.67854 0.67844,-0.67854 0.37467,0 0.67841,0.3038 0.67841,0.67854z"/>
   <path class="fil51" d="M11.74351 4.66525c-0.05889,0.03762 -0.09086,0.11601 -0.15865,0.13294 -0.04523,0.01129 -0.09186,-0.00926 -0.13843,-0.01162 -0.05483,-0.00277 -0.1078,0.01976 -0.16254,0.02406 -0.05164,0.00403 -0.10599,-0.00791 -0.15396,0.01165 -0.046,0.01874 -0.07953,0.0643 -0.1283,0.07374 -0.0521,0.01009 -0.10095,-0.02403 -0.14811,-0.04836 -0.01449,-0.00746 -0.02955,-0.01411 -0.04495,-0.01972 -0.04867,0.07394 -0.08326,0.15796 -0.09999,0.24824 0.04703,-0.00054 0.09396,-0.00933 0.1378,-0.02637 0.04968,-0.0193 0.09603,-0.04888 0.14853,-0.05799 0.09057,-0.01571 0.18222,0.03209 0.27351,0.02145 0.05804,-0.00675 0.11041,-0.03644 0.16354,-0.06076 0.16686,-0.0764 0.35616,-0.10299 0.53761,-0.07548l0.00275 0.00042c-0.04862,-0.08965 -0.11687,-0.16708 -0.19895,-0.2266 -0.0108,0.00386 -0.02087,0.00865 -0.02986,0.0144z"/>
   <path class="fil51" d="M11.54628 4.67577c-0.11112,0.0371 -0.23275,-0.00931 -0.34925,0.00287 -0.04122,0.0043 -0.08128,0.01592 -0.12107,0.02749 -0.05663,0.01646 -0.11327,0.03292 -0.1699,0.04938 -0.01821,0.0053 -0.03653,0.01059 -0.05504,0.01474 0.03882,-0.04729 0.0839,-0.08922 0.13398,-0.12456 0.07904,0.00573 0.15714,0.00851 0.23036,-0.01929 0.03427,-0.013 0.06661,-0.03253 0.10286,-0.038 0.02999,-0.00452 0.06066,0.00095 0.09087,-0.00182 0.02442,-0.00223 0.04799,-0.00979 0.07134,-0.01731l0.07334 -0.02359c0.03878,0.01053 0.07617,0.02441 0.11186,0.04131 -0.02963,0.04074 -0.07147,0.0728 -0.11935,0.08878z"/>
   <path class="fil51" d="M11.72406 5.04009c-0.07688,0.04801 -0.14582,0.12112 -0.23625,0.12721 -0.06517,0.00438 -0.12694,-0.02794 -0.19166,-0.03667 -0.10264,-0.01388 -0.20383,0.03228 -0.29138,0.08762 -0.03776,0.02386 -0.07586,0.0503 -0.11996,0.05735 -0.05447,0.0087 -0.10855,-0.01351 -0.16314,-0.02137 -0.00734,-0.00106 -0.0149,-0.0017 -0.02255,-0.00192 0.00409,0.05415 0.01457,0.10652 0.03062,0.15638 0.09886,-0.04941 0.20446,-0.08528 0.31297,-0.10631 0.04043,-0.00784 0.08276,-0.01354 0.12235,-0.0022 0.05294,0.01517 0.0957,0.05938 0.15032,0.06632 0.05939,0.00754 0.11405,-0.03073 0.16034,-0.0687 0.0463,-0.03797 0.09641,-0.07976 0.15627,-0.08109 0.07802,-0.00173 0.15454,0.06661 0.22673,0.03694 0.02813,-0.01157 0.04849,-0.03613 0.07292,-0.05423 0.03459,-0.02562 0.07859,-0.03781 0.12144,-0.03478 -0.0035,-0.0671 -0.01677,-0.13158 -0.03837,-0.19213 -0.01142,-0.00069 -0.02239,-0.00105 -0.03231,-0.00133 -0.09031,-0.0025 -0.18157,0.02095 -0.25834,0.06891z"/>
   <path class="fil51" d="M12.02052 5.34614c-0.04842,0.01154 -0.09063,0.04034 -0.13172,0.06843 -0.04109,0.02809 -0.08358,0.0566 -0.13217,0.06739 -0.06159,0.01369 -0.12529,-0.00258 -0.18725,-0.01438 -0.06198,-0.01182 -0.12972,-0.01837 -0.18499,0.01206 -0.03359,0.0185 -0.05888,0.04879 -0.08915,0.07233 -0.04713,0.03666 -0.10706,0.05649 -0.16674,0.05521 -0.0462,-0.001 -0.09155,-0.01417 -0.13774,-0.01421 -0.05115,-0.00004 -0.10131,0.01602 -0.15245,0.0159l-0.00457 -0.00004c0.03734,0.04951 0.08134,0.09372 0.13063,0.13135 0.08434,-0.02424 0.16829,-0.04749 0.25446,-0.03731 0.04034,0.00476 0.08398,0.01628 0.11952,-0.00339 0.0266,-0.01471 0.04174,-0.04357 0.06377,-0.06452 0.05739,-0.0546 0.14834,-0.04681 0.22607,-0.03162 0.07774,0.01518 0.16442,0.03268 0.23132,-0.00974 0.01555,-0.00985 0.02961,-0.0228 0.04722,-0.02817 0.01355,-0.00414 0.02758,-0.00337 0.04171,-0.00125 0.04242,-0.0667 0.07348,-0.14132 0.09055,-0.22112 -0.00666,0.00071 -0.01288,0.00175 -0.01847,0.00308z"/>
   <path class="fil51" d="M11.13519 5.83517c0.07643,-0.06856 0.18163,-0.11068 0.28191,-0.09007 0.02461,0.00506 0.04976,0.01376 0.07427,0.0082 0.03352,-0.00762 0.05558,-0.03933 0.08563,-0.05603 0.036,-0.02002 0.08403,-0.01568 0.11586,0.01045 0.00275,0.00226 0.00551,0.00485 0.0065,0.00827 0.00234,0.00805 -0.00579,0.01502 -0.013,0.01929 -0.06258,0.03713 -0.13407,0.05911 -0.2067,0.06354 -0.04651,0.00284 -0.09673,-0.00045 -0.13563,0.02522 -0.01755,0.01159 -0.0311,0.02816 -0.04566,0.04333 -0.00212,0.00222 -0.00427,0.0044 -0.00645,0.00656 -0.05452,-0.00672 -0.10701,-0.01991 -0.15673,-0.03876z"/>
   <path class="fil51" d="M11.06025 5.67899c0.05827,-0.03723 0.0899,-0.11479 0.15698,-0.13153 0.04476,-0.01118 0.0909,0.00915 0.13698,0.01148 0.05426,0.00275 0.10667,-0.01955 0.16083,-0.02379 0.0511,-0.004 0.10486,0.00782 0.15232,-0.01153 0.04552,-0.01855 0.07869,-0.06362 0.12695,-0.07297 0.05155,-0.00998 0.09989,0.02378 0.14655,0.04786 0.0117,0.00603 0.02376,0.01152 0.03608,0.01634 0.03839,-0.07334 0.06377,-0.15455 0.07308,-0.24059 -0.03493,0.00342 -0.06939,0.0115 -0.1021,0.02422 -0.04915,0.0191 -0.095,0.04837 -0.14696,0.05739 -0.08961,0.01554 -0.18029,-0.03176 -0.27062,-0.02124 -0.05742,0.00669 -0.10924,0.03606 -0.16181,0.06014 -0.16511,0.07559 -0.35243,0.10188 -0.53196,0.07467 -0.01941,-0.00294 -0.03975,-0.00642 -0.05825,0.00013 -0.00761,0.0027 -0.01434,0.00688 -0.02034,0.01205 0.03855,0.08459 0.09393,0.15987 0.16189,0.22155 0.0499,0.00653 0.10394,-0.0009 0.14038,-0.02418z"/>
   <path class="fil51" d="M11.25541 5.66858c0.10994,-0.0367 0.2303,0.00921 0.34557,-0.00284 0.04078,-0.00425 0.08041,-0.01576 0.11979,-0.0272 0.05603,-0.01629 0.11207,-0.03257 0.1681,-0.04886 0.01724,-0.00501 0.03459,-0.01004 0.0521,-0.01405 -0.03037,0.0457 -0.06611,0.0875 -0.10635,0.12451 -0.08632,-0.00659 -0.17199,-0.01301 -0.25179,0.01728 -0.03389,0.01287 -0.06589,0.03219 -0.10175,0.03761 -0.02968,0.00448 -0.06004,-0.00094 -0.08993,0.0018 -0.02415,0.00221 -0.04749,0.00969 -0.07058,0.01712 -0.02581,0.00831 -0.05162,0.01661 -0.07743,0.02491 -0.01481,0.00476 -0.02997,0.00972 -0.04219,0.01936 -0.01059,0.00837 -0.01825,0.0197 -0.02643,0.03053 -0.02503,-0.00775 -0.04944,-0.01696 -0.07313,-0.02746 0.00617,-0.01602 0.01536,-0.0319 0.02094,-0.04168 0.0292,-0.05124 0.07694,-0.09229 0.13308,-0.11103z"/>
   <path class="fil51" d="M11.0795 5.30811c0.07607,-0.04751 0.14429,-0.11985 0.23376,-0.12588 0.06448,-0.00434 0.1256,0.02764 0.18965,0.03629 0.10155,0.01373 0.20167,-0.03195 0.2883,-0.08671 0.03735,-0.02361 0.07506,-0.04976 0.1187,-0.05673 0.0452,-0.00722 0.09016,0.00708 0.13536,0.01646 -0.00693,-0.04293 -0.01785,-0.08453 -0.03243,-0.12437 -0.08297,0.03676 -0.17009,0.06414 -0.25917,0.0814 -0.04,0.00776 -0.08189,0.0134 -0.12106,0.00218 -0.05239,-0.01501 -0.09469,-0.05875 -0.14874,-0.06562 -0.05876,-0.00747 -0.11283,0.03041 -0.15865,0.06798 -0.0458,0.03756 -0.09539,0.07892 -0.15462,0.08024 -0.0772,0.00171 -0.15291,-0.06592 -0.22434,-0.03655 -0.02784,0.01144 -0.04798,0.03573 -0.07216,0.05365 -0.04501,0.03334 -0.10617,0.04369 -0.15963,0.02703 -0.00562,-0.00175 -0.01115,-0.00378 -0.01664,-0.00591 -0.00041,0.00961 -0.00066,0.01925 -0.00066,0.02896 0,0.05614 0.00686,0.11067 0.01971,0.16284 0.03387,0.0103 0.07568,0.01204 0.10699,0.01291 0.08937,0.00247 0.17967,-0.02072 0.25563,-0.06817z"/>
   <path class="fil51" d="M10.78617 5.00528c0.0479,-0.01142 0.08967,-0.03993 0.13032,-0.06771 0.04066,-0.0278 0.0827,-0.056 0.13077,-0.06668 0.06095,-0.01354 0.12398,0.00254 0.1853,0.01423 0.06133,0.01169 0.12835,0.01817 0.18304,-0.01195 0.03324,-0.0183 0.05826,-0.04826 0.08821,-0.07156 0.04663,-0.03627 0.10592,-0.0559 0.16498,-0.05462 0.04569,0.00099 0.09057,0.01401 0.13628,0.01406 0.02683,0.00002 0.05338,-0.00444 0.07994,-0.00861 -0.03877,-0.04405 -0.08315,-0.08305 -0.13202,-0.11584 -0.05739,0.01391 -0.11497,0.02263 -0.17358,0.01571 -0.03991,-0.00471 -0.0831,-0.01611 -0.11826,0.00335 -0.02632,0.01455 -0.0413,0.04311 -0.06309,0.06384 -0.05679,0.05402 -0.14678,0.04631 -0.22371,0.03129 -0.07692,-0.01502 -0.16268,-0.03233 -0.22888,0.00963 -0.01538,0.00975 -0.0293,0.02256 -0.04672,0.02788 -0.01951,0.00595 -0.04004,0.00162 -0.0604,-0.00211 -0.05067,0.06563 -0.08957,0.14079 -0.11359,0.22235 0.02262,0.00198 0.04476,0.00071 0.06141,-0.00326z"/>
   <path class="fil51" d="M11.60743 4.56266c-0.06729,0.04213 -0.1472,0.06369 -0.22419,0.04786 -0.02436,-0.005 -0.04925,-0.01361 -0.07349,-0.0081 -0.03318,0.00752 -0.055,0.03889 -0.08474,0.05542 -0.03561,0.01981 -0.08315,0.01552 -0.11464,-0.01034 -0.00273,-0.00224 -0.00546,-0.0048 -0.00644,-0.00818 -0.00231,-0.00796 0.00574,-0.01485 0.01287,-0.01909 0.06192,-0.03673 0.13266,-0.05848 0.20452,-0.06287 0.04603,-0.0028 0.09572,0.00046 0.1342,-0.02495 0.00236,-0.00155 0.00463,-0.00319 0.00686,-0.00491 0.05027,0.00642 0.09883,0.01835 0.14505,0.03516z"/>
   <path class="fil52" d="M10.76179 5.03897c0,0.39655 0.34071,0.71803 0.76099,0.71803 0.11578,0 0.2255,-0.02444 0.32375,-0.06809 0.12791,-0.12341 0.20749,-0.29659 0.20749,-0.48838 0,-0.37474 -0.30374,-0.67854 -0.67841,-0.67854 -0.25468,0 -0.47654,0.14038 -0.59257,0.34797 -0.01386,0.05421 -0.02125,0.11078 -0.02125,0.16901z"/>
   <path class="fil53" d="M10.9274 4.93074c0.03854,0.1066 0.22544,0.13672 0.41748,0.06728 0.19203,-0.06944 0.31644,-0.21215 0.27791,-0.31875 -0.03854,-0.10661 -0.22544,-0.13673 -0.41747,-0.06728 -0.19203,0.06944 -0.31645,0.21215 -0.27792,0.31875z"/>
   <path class="fil54" d="M17.11579 4.52882c0.279,-0.04134 0.47291,-0.30273 0.43158,-0.58177 -0.04132,-0.27904 -0.30267,-0.47298 -0.58167,-0.43165 -0.279,0.04134 -0.47291,0.30273 -0.43159,0.58176 0.04134,0.27904 0.30268,0.47299 0.58168,0.43166z"/>
   <path class="fil55" d="M16.63068 3.71598c0.234,-0.06517 0.47755,-0.09927 0.72034,-0.10082 -0.05691,-0.04338 -0.12276,-0.07497 -0.19348,-0.09169 -0.12226,0.00628 -0.24374,0.02291 -0.36314,0.04965 -0.06468,0.03566 -0.12031,0.08469 -0.16372,0.14286z"/>
   <path class="fil55" d="M16.55539 3.85918c0.29396,-0.07578 0.60267,-0.12002 0.90549,-0.12965 -0.01081,-0.01545 -0.02241,-0.03026 -0.03478,-0.04435 -0.28502,0.00469 -0.57374,0.04573 -0.84921,0.12059 -0.00813,0.01735 -0.01533,0.03517 -0.0215,0.05341z"/>
   <path class="fil55" d="M16.5304 4.06488c0.33221,-0.05326 0.67892,-0.10446 1.01126,-0.14933 -0.00918,-0.04325 -0.02369,-0.0842 -0.04278,-0.12227 -0.31998,0.01982 -0.64905,0.0675 -0.96237,0.13935 -0.00767,0.04284 -0.0099,0.0872 -0.00611,0.13225z"/>
   <path class="fil55" d="M16.5686 4.22061c0.32708,-0.02405 0.66316,-0.07486 0.98183,-0.14847 0.00146,-0.01479 0.00228,-0.02975 0.00244,-0.04479 -0.32559,0.06682 -0.66827,0.11827 -1.00011,0.15022 0.00467,0.01467 0.00994,0.02904 0.01584,0.04304z"/>
   <path class="fil55" d="M16.69741 4.40166c0.26553,-0.00374 0.53198,-0.04525 0.78586,-0.12254 0.03234,-0.05554 0.05443,-0.11731 0.06411,-0.18233 -0.31384,0.07662 -0.64507,0.12686 -0.96834,0.14697 0.02913,0.06049 0.06963,0.1139 0.11837,0.1579z"/>
   <path class="fil55" d="M16.87053 4.50497c0.16301,-0.00743 0.32474,-0.03319 0.48207,-0.07687 0.02547,-0.01966 0.04896,-0.04161 0.0702,-0.06551 -0.20778,0.06252 -0.42375,0.0966 -0.64062,0.10118 0.02798,0.01643 0.05755,0.03026 0.08835,0.0412z"/>
   <path class="fil56" d="M17.04832 4.07322c-0.1824,0.02703 -0.35471,0.04941 -0.50601,0.06637 -0.3407,0.03807 -0.57485,0.04807 -0.57894,0.02045 -0.00411,-0.02776 0.22541,-0.08645 0.56532,-0.14922 0.00014,-0.00738 0.0004,-0.01479 0.00094,-0.02223 -0.47942,0.08753 -0.81336,0.17683 -0.8066,0.22247 0.00673,0.04536 0.351,0.03418 0.83387,-0.02085 0.15435,-0.01754 0.32288,-0.03965 0.49901,-0.06575 0.17612,-0.02609 0.34382,-0.0538 0.49663,-0.08175 0.47808,-0.08734 0.81082,-0.17646 0.8041,-0.22183 -0.00676,-0.04563 -0.35224,-0.03428 -0.83644,0.02096 0.00267,0.00697 0.00507,0.01397 0.00734,0.02101 0.34364,-0.0385 0.58018,-0.04887 0.58429,-0.02111 0.0041,0.02762 -0.22289,0.08594 -0.55987,0.14827 -0.14971,0.02764 -0.32112,0.05617 -0.50364,0.08321z"/>
   <path class="fil57" d="M16.13262 4.09454c0.05313,-0.01388 0.12132,-0.02936 0.20232,-0.04592 0.05921,-0.01226 0.12407,-0.02492 0.19356,-0.03776 0.00011,-0.00334 0.00027,-0.00669 0.00047,-0.01004l0 -0.00002 0 -0.00003c0.00011,-0.00293 0.00025,-0.00586 0.00044,-0.00881 -0.46171,0.08288 -0.76482,0.16273 -0.75889,0.20277 0.0059,0.03981 0.33692,0.02571 0.80167,-0.02866 0.14856,-0.01734 0.3108,-0.03887 0.4804,-0.064 0.16959,-0.02512 0.33112,-0.05157 0.47832,-0.07804 0.46055,-0.08271 0.78145,-0.16519 0.77555,-0.20501 -0.00585,-0.03949 -0.32897,-0.02615 -0.78485,0.02656 0.00211,0.00573 0.00406,0.01149 0.00593,0.01727 0.34364,-0.0385 0.58018,-0.04887 0.58429,-0.02111 0.0041,0.02762 -0.22289,0.08594 -0.55987,0.14827 -0.14971,0.02764 -0.32111,0.05617 -0.50364,0.08321 -0.1824,0.02703 -0.35471,0.04942 -0.50601,0.06637 -0.3407,0.03807 -0.57485,0.04807 -0.57894,0.02045 -0.00215,-0.01459 0.06024,-0.03773 0.16925,-0.0655z"/>
   <path class="fil58" d="M16.58067 4.06615c0.03735,0.2522 0.28311,0.42472 0.54893,0.38534 0.26583,-0.03938 0.45103,-0.27575 0.41368,-0.52796 -0.03735,-0.2522 -0.28312,-0.42473 -0.54894,-0.38534 -0.26582,0.03937 -0.45103,0.27575 -0.41367,0.52796z"/>
   <path class="fil59" d="M16.85801 4.0241c0.0395,0.21588 0.21509,0.36462 0.39216,0.3322 0.17708,-0.03242 0.2886,-0.23371 0.24908,-0.4496 -0.03951,-0.21589 -0.21509,-0.36461 -0.39216,-0.33219 -0.17708,0.03242 -0.28859,0.2337 -0.24908,0.44959z"/>
   <path class="fil60" d="M16.74127 3.83021c-0.00348,0.02472 -0.02423,0.04224 -0.04635,0.03913 -0.02212,-0.00312 -0.03723,-0.02569 -0.03374,-0.05041 0.00347,-0.02473 0.02422,-0.04225 0.04635,-0.03913 0.02211,0.00311 0.03722,0.02568 0.03374,0.05041z"/>
   <path class="fil60" d="M16.9192 3.68387c-0.00586,0.01028 -0.01801,0.01439 -0.02714,0.00918 -0.00913,-0.00521 -0.01178,-0.01776 -0.00592,-0.02803 0.00585,-0.01027 0.018,-0.01438 0.02713,-0.00918 0.00913,0.00521 0.01179,0.01776 0.00593,0.02803z"/>
   <path class="fil60" d="M17.08363 3.79197c0.00173,0.0117 -0.00635,0.02259 -0.01805,0.02432 -0.0117,0.00174 -0.02258,-0.00635 -0.02431,-0.01804 -0.00173,-0.0117 0.00633,-0.02259 0.01804,-0.02433 0.0117,-0.00173 0.02259,0.00635 0.02432,0.01805z"/>
   <path class="fil60" d="M16.74297 3.96031c0.00193,0.013 -0.00705,0.0251 -0.02005,0.02703 -0.013,0.00192 -0.02509,-0.00706 -0.02702,-0.02005 -0.00192,-0.013 0.00706,-0.0251 0.02005,-0.02704 0.013,-0.00192 0.02509,0.00706 0.02702,0.02006z"/>
   <path class="fil60" d="M16.78306 4.29596c0.00116,0.0078 -0.00423,0.01506 -0.01203,0.01622 -0.0078,0.00115 -0.01505,-0.00423 -0.01621,-0.01203 -0.00116,-0.00781 0.00423,-0.01506 0.01203,-0.01622 0.0078,-0.00116 0.01506,0.00423 0.01621,0.01203z"/>
   <path class="fil60" d="M16.92027 4.34539c0.00134,0.0091 -0.00495,0.01758 -0.01404,0.01892 -0.0091,0.00135 -0.01756,-0.00493 -0.01892,-0.01403 -0.00135,-0.00911 0.00495,-0.01758 0.01403,-0.01893 0.00911,-0.00134 0.01758,0.00495 0.01893,0.01404z"/>
   <path class="fil60" d="M17.04387 4.43293c0.00096,0.00649 -0.00353,0.01255 -0.01003,0.01351 -0.0065,0.00096 -0.01254,-0.00353 -0.01351,-0.01002 -0.00097,-0.00651 0.00352,-0.01255 0.01003,-0.01352 0.00649,-0.00097 0.01254,0.00352 0.01351,0.01003z"/>
   <path class="fil60" d="M17.1863 4.25787c0.00212,0.0143 -0.00776,0.02761 -0.02205,0.02973 -0.0143,0.00212 -0.02761,-0.00776 -0.02973,-0.02206 -0.00212,-0.0143 0.00776,-0.02761 0.02205,-0.02973 0.0143,-0.00212 0.02761,0.00776 0.02973,0.02206z"/>
   <path class="fil60" d="M17.31077 4.38376c0.00174,0.0117 -0.00634,0.0226 -0.01804,0.02433 -0.01169,0.00173 -0.02259,-0.00635 -0.02433,-0.01805 -0.00173,-0.01171 0.00635,-0.02259 0.01806,-0.02432 0.01169,-0.00174 0.02259,0.00634 0.02431,0.01804z"/>
   <path class="fil60" d="M17.04822 4.36492c0.00097,0.00651 -0.00352,0.01255 -0.01002,0.01351 -0.00649,0.00097 -0.01254,-0.00352 -0.01351,-0.01002 -0.00096,-0.0065 0.00352,-0.01255 0.01002,-0.01351 0.0065,-0.00096 0.01255,0.00352 0.01351,0.01002z"/>
   <path class="fil60" d="M16.63994 4.27146c0.00057,0.0039 -0.00212,0.00753 -0.00602,0.00811 -0.0039,0.00058 -0.00753,-0.00212 -0.0081,-0.00602 -0.00059,-0.0039 0.00211,-0.00753 0.006,-0.00811 0.00391,-0.00057 0.00754,0.00212 0.00812,0.00602z"/>
   <path class="fil60" d="M17.18893 3.9183c0.00153,0.0104 -0.00565,0.02008 -0.01604,0.02162 -0.0104,0.00154 -0.02008,-0.00564 -0.02163,-0.01604 -0.00153,-0.0104 0.00565,-0.02008 0.01605,-0.02163 0.01039,-0.00153 0.02007,0.00565 0.02162,0.01605z"/>
   <path class="fil60" d="M17.40701 3.79938c0.00155,0.01041 -0.00563,0.02009 -0.01603,0.02163 -0.0104,0.00154 -0.02008,-0.00564 -0.02162,-0.01604 -0.00154,-0.01041 0.00564,-0.02009 0.01604,-0.02162 0.0104,-0.00155 0.02008,0.00564 0.02161,0.01603z"/>
   <path class="fil60" d="M17.21054 3.67454c0.00077,0.0052 -0.00282,0.01004 -0.00801,0.01081 -0.0052,0.00077 -0.01004,-0.00282 -0.01082,-0.00802 -0.00077,-0.0052 0.00282,-0.01004 0.00802,-0.01081 0.0052,-0.00077 0.01004,0.00282 0.01081,0.00802z"/>
   <path class="fil60" d="M17.04841 3.55423c0.00078,0.0052 -0.00281,0.01004 -0.00801,0.01081 -0.0052,0.00077 -0.01004,-0.00282 -0.01081,-0.00803 -0.00077,-0.0052 0.00282,-0.01003 0.00801,-0.01081 0.0052,-0.00076 0.01004,0.00283 0.01081,0.00803z"/>
   <path class="fil60" d="M16.83712 3.62161c0.00097,0.00651 -0.00352,0.01255 -0.01002,0.01352 -0.0065,0.00096 -0.01256,-0.00353 -0.01352,-0.01003 -0.00096,-0.00649 0.00353,-0.01255 0.01003,-0.01351 0.0065,-0.00096 0.01254,0.00353 0.01351,0.01002z"/>
   <path class="fil1" d="M8.95074 9.05079c-0.00389,-0.00721 -0.01288,-0.00973 -0.02004,-0.0057 -0.00713,0.00396 -0.00965,0.0129 -0.00566,0.01999 0.00389,0.0072 0.0129,0.00982 0.02,0.00576 0.00711,-0.00388 0.00974,-0.01292 0.0057,-0.02005z"/>
   <path class="fil1" d="M7.74984 7.49493c-0.00526,-0.00948 -0.0173,-0.01289 -0.02686,-0.00755 -0.00937,0.00524 -0.01292,0.01729 -0.00759,0.0268 0.00535,0.00948 0.01738,0.01285 0.02684,0.00753 0.00952,-0.00528 0.01283,-0.0173 0.00761,-0.02678z"/>
   <path class="fil1" d="M7.57443 7.78936c-0.00401,-0.00702 -0.01306,-0.00965 -0.02015,-0.00567 -0.00711,0.00388 -0.00964,0.0129 -0.0056,0.02003 0.00387,0.00719 0.01289,0.00972 0.01999,0.00566 0.00715,-0.00394 0.00974,-0.01292 0.00576,-0.02002z"/>
   <path class="fil1" d="M8.33203 8.9697c-0.00405,-0.00714 -0.01306,-0.00975 -0.02016,-0.00568 -0.00711,0.00387 -0.00963,0.0129 -0.0057,0.02004 0.00394,0.00716 0.013,0.00971 0.02006,0.00571 0.00718,-0.004 0.00975,-0.013 0.0058,-0.02007z"/>
   <path class="fil1" d="M8.03462 8.1607c0.0072,0.0037 0.01614,0.00079 0.01995,-0.00644 0.00365,-0.00725 0.00079,-0.01616 -0.00649,-0.01993 -0.00724,-0.00369 -0.01615,-0.00087 -0.01988,0.00645 -0.00373,0.00731 -0.00083,0.01615 0.00642,0.01992z"/>
   <path class="fil1" d="M7.78372 9.09922c0.00235,0.00782 -0.00202,0.01615 -0.00989,0.01848 -0.00774,0.00246 -0.01603,-0.00211 -0.01846,-0.00986 -0.0024,-0.00782 0.00206,-0.01608 0.00981,-0.01833 0.00793,-0.00246 0.01612,0.00203 0.01854,0.00971z"/>
   <path class="fil1" d="M7.71014 9.39361c0.00311,0.01044 -0.00276,0.0213 -0.01311,0.02441 -0.01051,0.00326 -0.02141,-0.00253 -0.02463,-0.01282 -0.00308,-0.0105 0.00275,-0.02151 0.01312,-0.0247 0.01042,-0.00319 0.02143,0.00261 0.02462,0.01311z"/>
  </g>
 </g>
</svg>
