<?xml version="1.0" encoding="UTF-8"?>
<!DOCTYPE svg PUBLIC "-//W3C//DTD SVG 1.0//EN" "http://www.w3.org/TR/2001/REC-SVG-20010904/DTD/svg10.dtd">
<!-- Creator: CorelDRAW 2019 (64 Bit) -->
<svg xmlns="http://www.w3.org/2000/svg" xml:space="preserve" width="4.59392cm" height="1.29064cm" version="1.0" style="shape-rendering:geometricPrecision; text-rendering:geometricPrecision; image-rendering:optimizeQuality; fill-rule:evenodd; clip-rule:evenodd"
viewBox="0 0 4593.92 1290.64"
 xmlns:xlink="http://www.w3.org/1999/xlink">
 <defs>
  <style type="text/css">
   <![CDATA[
    .fil1 {fill:url(#id0)}
    .fil0 {fill:url(#id1)}
    .fil2 {fill:url(#id2);fill-rule:nonzero}
   ]]>
  </style>
  <linearGradient id="id0" gradientUnits="userSpaceOnUse" x1="192.02" y1="466.09" x2="4587.95" y2="1203.21">
   <stop offset="0" style="stop-opacity:1; stop-color:#ffffff"/>
   <stop offset="1" style="stop-opacity:1; stop-color:#ffffff"/>
  </linearGradient>
  <linearGradient id="id1" gradientUnits="userSpaceOnUse" xlink:href="#id0" x1="191.93" y1="466.07" x2="4587.96" y2="1203.23">
  </linearGradient>
  <linearGradient id="id2" gradientUnits="objectBoundingBox" xlink:href="#id0" x1="4.62233%" y1="18.0647%" x2="107.29%" y2="82.6249%">
  </linearGradient>
 </defs>
 <g id="Camada_x0020_1">
  <metadata id="CorelCorpID_0Corel-Layer"/>
  <g id="_2515722346512">
   <path class="fil0" d="M3754.98 364.59c-20.05,-3.09 -39.92,-5.88 -59.22,-8.4 -86.21,-11.26 -143.23,-13.85 -233.15,-9.9l0 820c104.46,-36.6 166.38,-26.38 259.74,-26.38 92.75,0 187.59,22 258.14,49.17 70.55,-27.17 165.14,-49.17 257.9,-49.17 93.36,0 155.27,-10.22 259.74,26.38l0 -820c-89.92,-3.95 -146.94,-1.36 -233.16,9.9 -12.21,1.6 -24.7,3.3 -37.33,5.12 -6.93,-23.82 -15.03,-47.52 -24.31,-71.08 31.04,-5.13 62.05,-9.6 91.85,-13.49 95.4,-12.48 193.27,-15.33 292.78,-10.96l0 1021.13c-104.13,-54.12 -218.9,-55.02 -322.21,-55.02 -102.63,0 -207.31,24.35 -285.38,54.42 -78.07,-30.07 -182.75,-54.42 -285.38,-54.42 -103.31,0 -218.08,0.9 -322.21,55.02l0 -1021.13c99.51,-4.37 197.38,-1.51 292.78,10.96 36.45,4.76 74.99,10.38 113.29,17.02 -9.13,23.48 -17.08,47.09 -23.87,70.83z"/>
   <path class="fil1" d="M3869.51 1092.29l244.55 0c22.57,-49.16 43.68,-97.22 62,-148.31 11.77,-32.81 172.16,91.52 180.98,59.03 6.89,-25.35 12.36,-157.02 4.42,-186.65 -8.69,-32.45 -128.3,-91.71 -125.42,-114.34 31.15,-243.98 -34.96,-477.45 -244.25,-695.44 -209.29,217.99 -275.41,451.46 -244.26,695.44 2.88,22.63 -116.73,81.89 -125.42,114.34 -7.94,29.63 -2.47,161.3 4.42,186.65 8.82,32.49 169.21,-91.84 180.98,-59.03 18.32,51.09 39.43,99.15 62,148.31zm122.28 -748.73c58.71,0 106.3,47.59 106.3,106.3 0,58.71 -47.59,106.31 -106.3,106.31 -58.71,0 -106.31,-47.6 -106.31,-106.31 0,-58.71 47.6,-106.3 106.31,-106.3z"/>
   <path class="fil2" d="M363.86 1297.27c-65.48,0 -130.7,-12.03 -195.67,-36.07 -64.97,-24.04 -123.03,-60.11 -174.19,-108.19l128.92 -155.01c35.81,30.7 75.45,55.76 118.93,75.2 43.49,19.44 86.2,29.16 128.15,29.16 47.06,0 82.11,-8.69 105.13,-26.09 23.02,-17.39 34.53,-40.92 34.53,-70.59 0,-15.35 -3.33,-28.65 -9.98,-39.9 -6.65,-11.26 -16.37,-21.23 -29.16,-29.93 -12.79,-8.7 -28.13,-16.88 -46.04,-24.56 -17.9,-7.67 -37.6,-16.11 -59.08,-25.32l-130.45 -55.25c-25.58,-10.23 -50.39,-23.53 -74.43,-39.9 -24.05,-16.37 -45.53,-35.55 -64.46,-57.55 -18.93,-22 -34.02,-47.57 -45.27,-76.73 -11.26,-29.16 -16.88,-62.16 -16.88,-98.99 0,-40.92 8.69,-79.55 26.09,-115.87 17.39,-36.32 41.94,-68.04 73.66,-95.15 31.72,-27.11 69.32,-48.34 112.8,-63.69 43.48,-15.34 91.31,-23.02 143.49,-23.02 58.32,0 115.87,11.26 172.65,33.77 56.79,22.5 106.66,55.24 149.63,98.21l-115.1 142.73c-32.74,-25.58 -65.48,-45.27 -98.22,-59.08 -32.74,-13.82 -69.06,-20.72 -108.96,-20.72 -38.88,0 -69.83,7.93 -92.85,23.78 -23.02,15.86 -34.53,38.12 -34.53,66.76 0,15.35 3.84,28.39 11.51,39.14 7.68,10.74 18.42,20.46 32.23,29.16 13.81,8.69 29.93,16.88 48.34,24.55 18.42,7.67 38.37,16.12 59.86,25.32l128.91 52.18c61.39,24.56 109.73,58.32 145.03,101.29 35.29,42.97 52.94,99.76 52.94,170.35 0,41.95 -8.44,81.59 -25.32,118.94 -16.88,37.34 -41.44,70.08 -73.66,98.22 -32.23,28.13 -71.88,50.64 -118.94,67.52 -47.07,16.89 -100.27,25.33 -159.61,25.33z"/>
   <path id="1" class="fil2" d="M1146.55 772.41l-24.56 92.08 213.32 0 -23.02 -92.08c-14.32,-50.14 -28.13,-103.34 -41.43,-159.61 -13.31,-56.27 -26.61,-110.5 -39.91,-162.68l-6.13 0c-12.28,53.21 -24.82,107.69 -37.6,163.45 -12.79,55.76 -26.35,108.7 -40.67,158.84zm-362.19 506.44l313.08 -1000.61 271.63 0 313.08 1000.61 -239.41 0 -61.39 -237.88 -305.4 0 -61.39 237.88 -230.2 0z"/>
   <path id="2" class="fil2" d="M1936.91 1278.85l-302.33 -1000.61 239.41 0 119.7 466.54c15.35,55.25 28.91,108.71 40.67,160.38 11.77,51.66 25.32,105.12 40.67,160.37l6.14 0c14.32,-55.25 27.62,-108.71 39.9,-160.37 12.28,-51.67 25.58,-105.13 39.9,-160.38l118.17 -466.54 230.2 0 -300.79 1000.61 -271.64 0z"/>
   <polygon id="3" class="fil2" points="2616.77,1278.85 2616.77,278.24 3242.92,278.24 3242.92,468.54 2842.37,468.54 2842.37,669.58 3183.07,669.58 3183.07,858.35 2842.37,858.35 2842.37,1088.55 3258.27,1088.55 3258.27,1278.85 "/>
  </g>
 </g>
</svg>
